# Alias OBJ Model File
# Exported from SketchUp, (c) 2000-2012 Trimble Navigation Limited
# File units = meters

mtllib BigStairs1.mtl

g Mesh1 Group1 Model

usemtl M_0035_Tan
v 0.5 0 -0.5
vt 39.3701 0
vn 1 0 -0
v 0.5 0.05 9.02389e-17
vt 19.685 1.9685
v 0.5 0 9.02389e-17
vt 19.685 0
f 1/1/1 2/2/1 3/3/1

v 0.5 0.05 -0.5
vt 39.3701 1.9685
f 2/2/1 1/1/1 4/4/1

vt -39.3701 1.9685
vn 0 0 -1
vt -39.3701 0
v 0.45 0.05 -0.5
vt -37.4016 1.9685
f 4/5/2 1/6/2 5/7/2

v -0.5 0 -0.5
vt 0 0
f 6/8/2 5/7/2 1/6/2

v -0.15 0.65 -0.5
vt -13.7795 25.5906
f 5/7/2 6/8/2 7/9/2

v -0.4 0.9 -0.5
vt -3.93701 35.4331
f 7/9/2 6/8/2 8/10/2

v -0.5 1 -0.5
vt 0 39.3701
f 8/10/2 6/8/2 9/11/2

v -0.5 0 9.02389e-17
vt -19.685 0
vn -1 0 -0
vt -39.3701 39.3701
f 10/12/3 9/13/3 6/6/3

v -0.5 1 9.02389e-17
vt -19.685 39.3701
f 9/13/3 10/12/3 11/14/3

vn 0 0 1
v -0.4 0.9 9.02389e-17
vt 3.93701 35.4331
f 10/8/4 12/15/4 11/11/4

v -0.15 0.65 9.02389e-17
vt 13.7795 25.5906
f 10/8/4 13/16/4 12/15/4

v 0.45 0.05 9.02389e-17
vt 37.4016 1.9685
f 10/8/4 14/17/4 13/16/4

f 10/8/4 2/4/4 14/17/4

f 2/4/4 10/8/4 3/1/4

vt 0 19.685
vn 0 -1 -0
vt -39.3701 19.685
f 10/18/5 1/13/5 3/19/5

f 1/13/5 10/18/5 6/11/5

vt 39.3701 19.685
vn 0 1 -0
vt 37.4016 39.3701
vt 37.4016 19.685
f 2/20/6 5/21/6 14/22/6

vt 39.3701 39.3701
f 5/21/6 2/20/6 4/23/6

v 0.45 0.1 9.02389e-17
vt 19.685 3.93701
f 5/4/1 15/24/1 14/2/1

v 0.45 0.1 -0.5
vt 39.3701 3.93701
f 15/24/1 5/4/1 16/25/1

vt -37.4016 3.93701
v 0.4 0.1 -0.5
vt -35.4331 3.93701
f 16/26/2 5/7/2 17/27/2

f 5/7/2 7/9/2 17/27/2

v 0.35 0.15 -0.5
vt -33.4646 5.90551
f 17/27/2 7/9/2 18/28/2

v 0.25 0.25 -0.5
vt -29.5276 9.84252
f 18/28/2 7/9/2 19/29/2

v 0.2 0.3 -0.5
vt -27.5591 11.811
f 19/29/2 7/9/2 20/30/2

v 0.15 0.35 -0.5
vt -25.5906 13.7795
f 20/30/2 7/9/2 21/31/2

v 0.1 0.4 -0.5
vt -23.622 15.748
f 21/31/2 7/9/2 22/32/2

v 0.05 0.45 -0.5
vt -21.6535 17.7165
f 22/32/2 7/9/2 23/33/2

v 0 0.5 -0.5
vt -19.685 19.685
f 23/33/2 7/9/2 24/34/2

v -0.05 0.55 -0.5
vt -17.7165 21.6535
f 24/34/2 7/9/2 25/35/2

v -0.1 0.6 -0.5
vt -15.748 23.622
f 25/35/2 7/9/2 26/36/2

v -0.1 0.65 -0.5
vt -15.748 25.5906
f 27/37/2 26/36/2 7/9/2

v -0.1 0.65 9.02389e-17
vt 19.685 25.5906
vn 1 -1.80478e-15 -0
vt 39.3701 23.622
vt 39.3701 25.5906
f 28/38/7 26/39/7 27/40/7

v -0.1 0.6 9.02389e-17
vt 19.685 23.622
f 26/39/7 28/38/7 29/41/7

vt 15.748 25.5906
vt 15.748 23.622
f 28/42/4 13/16/4 29/43/4

vt 15.748 19.685
vn -3.60956e-15 1 -0
vt 13.7795 39.3701
vt 13.7795 19.685
f 28/44/8 7/45/8 13/46/8

vt 15.748 39.3701
f 7/45/8 28/44/8 27/47/8

vn 1 3.60956e-15 -0
v -0.15 0.7 9.02389e-17
vt 19.685 27.5591
f 7/40/9 30/48/9 13/38/9

v -0.15 0.7 -0.5
vt 39.3701 27.5591
f 30/48/9 7/40/9 31/49/9

v -0.2 0.7 -0.5
vt -11.811 27.5591
vt -13.7795 27.5591
f 7/9/2 32/50/2 31/51/2

v -0.25 0.75 -0.5
vt -9.84252 29.5276
f 7/9/2 33/52/2 32/50/2

f 7/9/2 8/10/2 33/52/2

v -0.35 0.85 -0.5
vt -5.90551 33.4646
f 33/52/2 8/10/2 34/53/2

v -0.35 0.9 -0.5
vt -5.90551 35.4331
f 35/54/2 34/53/2 8/10/2

v -0.35 0.9 9.02389e-17
vt 19.685 35.4331
vn 1 1.80478e-15 -0
vt 39.3701 33.4646
vt 39.3701 35.4331
f 36/55/10 34/56/10 35/57/10

v -0.35 0.85 9.02389e-17
vt 19.685 33.4646
f 34/56/10 36/55/10 37/58/10

vt 5.90551 33.4646
vt 5.90551 35.4331
f 12/15/4 37/59/4 36/60/4

v -0.25 0.75 9.02389e-17
vt 9.84252 29.5276
f 12/15/4 38/61/4 37/59/4

f 12/15/4 13/16/4 38/61/4

v -0.2 0.7 9.02389e-17
vt 11.811 27.5591
f 38/61/4 13/16/4 39/62/4

vt 13.7795 27.5591
f 39/62/4 13/16/4 30/63/4

vn 7.21911e-15 1 3.30934e-31
vt 11.811 39.3701
vt 11.811 19.685
f 30/46/11 32/64/11 39/65/11

f 32/64/11 30/46/11 31/45/11

vn 1 -7.21911e-15 9.02389e-17
v -0.2 0.75 9.02389e-17
vt 19.685 29.5276
f 32/49/12 40/66/12 39/48/12

v -0.2 0.75 -0.5
vt 39.3701 29.5276
f 40/66/12 32/49/12 41/67/12

vt -11.811 29.5276
f 32/50/2 33/52/2 41/68/2

vt 9.84252 39.3701
vn 1.80478e-15 1 8.27335e-32
f 33/69/13 40/65/13 41/64/13

vt 9.84252 19.685
f 40/65/13 33/69/13 38/70/13

v -0.25 0.8 9.02389e-17
vt 19.685 31.4961
f 33/67/7 42/71/7 38/66/7

v -0.25 0.8 -0.5
vt 39.3701 31.4961
f 42/71/7 33/67/7 43/72/7

vt -9.84252 31.4961
v -0.3 0.8 -0.5
vt -7.87402 31.4961
f 43/73/2 33/52/2 44/74/2

f 33/52/2 34/53/2 44/74/2

v -0.3 0.85 -0.5
vt -7.87402 33.4646
f 45/75/2 44/74/2 34/53/2

v -0.3 0.85 9.02389e-17
vn 1 -1.80478e-15 9.02389e-17
f 46/58/14 44/72/14 45/56/14

v -0.3 0.8 9.02389e-17
f 44/72/14 46/58/14 47/71/14

vt 7.87402 31.4961
vt 7.87402 33.4646
f 37/59/4 47/76/4 46/77/4

f 37/59/4 38/61/4 47/76/4

vt 9.84252 31.4961
f 47/76/4 38/61/4 42/78/4

vt 7.87402 39.3701
vt 7.87402 19.685
f 42/70/13 44/79/13 47/80/13

f 44/79/13 42/70/13 43/69/13

vn -1.80478e-15 1 -8.27335e-32
vt 5.90551 39.3701
vt 5.90551 19.685
f 46/80/15 34/81/15 37/82/15

f 34/81/15 46/80/15 45/79/15

vt 11.811 29.5276
f 38/61/4 39/62/4 40/83/4

vt 3.93701 39.3701
vt 3.93701 19.685
f 36/82/6 8/84/6 12/85/6

f 8/84/6 36/82/6 35/81/6

v -0.4 0.95 9.02389e-17
vt 19.685 37.4016
f 8/57/1 48/86/1 12/55/1

v -0.4 0.95 -0.5
vt 39.3701 37.4016
f 48/86/1 8/57/1 49/87/1

v -0.45 0.95 -0.5
vt -1.9685 37.4016
vt -3.93701 37.4016
f 8/10/2 50/88/2 49/89/2

f 8/10/2 9/11/2 50/88/2

v -0.45 1 -0.5
vt -1.9685 39.3701
f 50/88/2 9/11/2 51/90/2

v -0.45 1 9.02389e-17
vt 1.9685 19.685
vt 1.9685 39.3701
f 9/11/6 52/91/6 51/92/6

f 52/91/6 9/11/6 11/18/6

v -0.45 0.95 9.02389e-17
vt 1.9685 37.4016
f 11/11/4 53/93/4 52/92/4

f 11/11/4 12/15/4 53/93/4

vt 3.93701 37.4016
f 53/93/4 12/15/4 48/94/4

vn 1.80478e-15 1 -8.27335e-33
f 48/85/16 50/92/16 53/91/16

f 50/92/16 48/85/16 49/84/16

vt 19.685 39.3701
f 50/87/7 52/95/7 53/86/7

f 52/95/7 50/87/7 51/23/7

v -0.05 0.55 9.02389e-17
vt 17.7165 21.6535
f 13/16/4 54/96/4 29/43/4

v 0 0.5 9.02389e-17
vt 19.685 19.685
f 13/16/4 55/97/4 54/96/4

v 0.05 0.45 9.02389e-17
vt 21.6535 17.7165
f 13/16/4 56/98/4 55/97/4

v 0.1 0.4 9.02389e-17
vt 23.622 15.748
f 13/16/4 57/99/4 56/98/4

v 0.15 0.35 9.02389e-17
vt 25.5906 13.7795
f 13/16/4 58/100/4 57/99/4

v 0.2 0.3 9.02389e-17
vt 27.5591 11.811
f 13/16/4 59/101/4 58/100/4

v 0.25 0.25 9.02389e-17
vt 29.5276 9.84252
f 13/16/4 60/102/4 59/101/4

v 0.35 0.15 9.02389e-17
vt 33.4646 5.90551
f 13/16/4 61/103/4 60/102/4

v 0.4 0.1 9.02389e-17
vt 35.4331 3.93701
f 13/16/4 62/104/4 61/103/4

f 13/16/4 14/17/4 62/104/4

vt 37.4016 3.93701
f 62/104/4 14/17/4 15/105/4

vt 35.4331 39.3701
vt 35.4331 19.685
f 15/22/6 17/106/6 62/107/6

f 17/106/6 15/22/6 16/21/6

v 0.4 0.15 9.02389e-17
vt 19.685 5.90551
f 17/25/1 63/108/1 62/24/1

v 0.4 0.15 -0.5
vt 39.3701 5.90551
f 63/108/1 17/25/1 64/109/1

vt -35.4331 5.90551
f 64/110/2 17/27/2 18/28/2

vt 33.4646 39.3701
f 18/111/6 63/107/6 64/106/6

vt 33.4646 19.685
f 63/107/6 18/111/6 61/112/6

v 0.35 0.2 9.02389e-17
vt 19.685 7.87402
f 18/109/1 65/113/1 61/108/1

v 0.35 0.2 -0.5
vt 39.3701 7.87402
f 65/113/1 18/109/1 66/114/1

vt -33.4646 7.87402
v 0.3 0.2 -0.5
vt -31.4961 7.87402
f 66/115/2 18/28/2 67/116/2

f 18/28/2 19/29/2 67/116/2

v 0.3 0.25 -0.5
vt -31.4961 9.84252
f 68/117/2 67/116/2 19/29/2

v 0.3 0.25 9.02389e-17
vt 19.685 9.84252
vt 39.3701 9.84252
f 69/118/1 67/114/1 68/119/1

v 0.3 0.2 9.02389e-17
f 67/114/1 69/118/1 70/113/1

vt 31.4961 7.87402
vt 31.4961 9.84252
f 60/102/4 70/120/4 69/121/4

f 60/102/4 61/103/4 70/120/4

vt 33.4646 7.87402
f 70/120/4 61/103/4 65/122/4

vt 31.4961 39.3701
vt 31.4961 19.685
f 65/112/6 67/123/6 70/124/6

f 67/123/6 65/112/6 66/111/6

vt 29.5276 39.3701
vt 29.5276 19.685
f 69/124/6 19/125/6 60/126/6

f 19/125/6 69/124/6 68/123/6

v 0.25 0.3 9.02389e-17
vt 19.685 11.811
f 19/119/1 71/127/1 60/118/1

v 0.25 0.3 -0.5
vt 39.3701 11.811
f 71/127/1 19/119/1 72/128/1

vt -29.5276 11.811
f 72/129/2 19/29/2 20/30/2

vt 27.5591 39.3701
f 20/130/6 71/126/6 72/125/6

vt 27.5591 19.685
f 71/126/6 20/130/6 59/131/6

v 0.2 0.35 9.02389e-17
vt 19.685 13.7795
f 20/128/1 73/132/1 59/127/1

v 0.2 0.35 -0.5
vt 39.3701 13.7795
f 73/132/1 20/128/1 74/133/1

vt -27.5591 13.7795
f 74/134/2 20/30/2 21/31/2

vt 25.5906 39.3701
f 21/135/6 73/131/6 74/130/6

vt 25.5906 19.685
f 73/131/6 21/135/6 58/136/6

v 0.15 0.4 9.02389e-17
vt 19.685 15.748
f 21/133/1 75/137/1 58/132/1

v 0.15 0.4 -0.5
vt 39.3701 15.748
f 75/137/1 21/133/1 76/138/1

vt -25.5906 15.748
f 76/139/2 21/31/2 22/32/2

vt 23.622 39.3701
f 22/140/6 75/136/6 76/135/6

vt 23.622 19.685
f 75/136/6 22/140/6 57/141/6

v 0.1 0.45 9.02389e-17
vt 19.685 17.7165
f 22/138/1 77/142/1 57/137/1

v 0.1 0.45 -0.5
vt 39.3701 17.7165
f 77/142/1 22/138/1 78/143/1

vt -23.622 17.7165
f 78/144/2 22/32/2 23/33/2

vt 21.6535 39.3701
f 23/145/6 77/141/6 78/140/6

vt 21.6535 19.685
f 77/141/6 23/145/6 56/146/6

v 0.05 0.5 9.02389e-17
f 23/143/1 79/97/1 56/142/1

v 0.05 0.5 -0.5
f 79/97/1 23/143/1 80/20/1

vt -21.6535 19.685
f 80/147/2 23/33/2 24/34/2

f 24/95/6 79/146/6 80/145/6

f 79/146/6 24/95/6 55/97/6

v 0 0.55 9.02389e-17
vt 19.685 21.6535
f 24/20/1 81/148/1 55/97/1

v 0 0.55 -0.5
vt 39.3701 21.6535
f 81/148/1 24/20/1 82/149/1

vt -19.685 21.6535
f 82/150/2 24/34/2 25/35/2

vt 17.7165 39.3701
f 25/151/6 81/97/6 82/95/6

vt 17.7165 19.685
f 81/97/6 25/151/6 54/152/6

v -0.05 0.6 9.02389e-17
f 25/149/7 83/41/7 54/148/7

v -0.05 0.6 -0.5
f 83/41/7 25/149/7 84/39/7

vt -17.7165 23.622
f 25/35/2 26/36/2 84/153/2

vn 1.80478e-15 1 -0
f 26/47/17 83/152/17 84/151/17

f 83/152/17 26/47/17 29/44/17

vt 17.7165 23.622
f 29/43/4 54/96/4 83/154/4

f 54/96/4 55/97/4 81/148/4

f 55/97/4 56/98/4 79/146/4

vt 23.622 17.7165
f 56/98/4 57/99/4 77/155/4

vt 25.5906 15.748
f 57/99/4 58/100/4 75/156/4

vt 27.5591 13.7795
f 58/100/4 59/101/4 73/157/4

vt 29.5276 11.811
f 59/101/4 60/102/4 71/158/4

vt 35.4331 5.90551
f 61/103/4 62/104/4 63/159/4

