# Alias OBJ Model File
# Exported from SketchUp, (c) 2000-2012 Trimble Navigation Limited
# File units = meters

mtllib Block1.mtl

g Mesh1 Model

usemtl M_0035_Tan
v 0.5 1 0.5
vt 19.685 -19.685
vn 0 1 -0
v -0.5 1 -0.5
vt -19.685 19.685
v -0.5 1 0.5
vt -19.685 -19.685
f 1/1/1 2/2/1 3/3/1

v 0.5 1 -0.5
vt 19.685 19.685
f 2/2/1 1/1/1 4/4/1

vt -19.685 39.3701
vn 1 0 -0
v 0.5 0 -0.5
vt 19.685 0
vt 19.685 39.3701
f 1/5/2 5/6/2 4/7/2

v 0.5 0 0.5
vt -19.685 0
f 5/6/2 1/5/2 6/8/2

vn 0 0 1
v -0.5 0 0.5
f 1/7/3 7/8/3 6/6/3

f 7/8/3 1/7/3 3/5/3

vn -1 0 -0
f 2/5/4 7/6/4 3/7/4

v -0.5 0 -0.5
f 7/6/4 2/5/4 8/8/4

vn 0 0 -1
f 2/7/5 5/8/5 8/6/5

f 5/8/5 2/7/5 4/5/5

vn 0 -1 -0
f 5/2/6 7/1/6 8/4/6

f 7/1/6 5/2/6 6/3/6

