# Alias OBJ Model File
# Exported from SketchUp, (c) 2000-2012 Trimble Navigation Limited
# File units = meters

mtllib BorderHigh.mtl

g Mesh1 Group1 Model

usemtl M_0035_Tan
v 0.5 -2.40445e-31 0.4
vt -39.3701 3.93701
vn -3.41814e-17 -1 6.76792e-16
v -0.5 9.02389e-17 0.5
vt 1.21437e-31 -2.40445e-30
v -0.5 9.02389e-17 0.4
vt 1.21437e-31 3.93701
f 1/1/1 2/2/1 3/3/1

v 0.5 9.02389e-17 0.5
vt -39.3701 -3.31522e-30
f 2/2/1 1/1/1 4/4/1

vt 3.93701 -9.46633e-30
vn 1 0 -0
v 0.5 0.2 0.5
vt 0 7.87402
vt 0 3.55271e-15
f 1/5/2 5/6/2 4/7/2

v 0.5 0.2 0.4
vt 3.93701 7.87402
f 5/6/2 1/5/2 6/8/2

vt -2.4869e-16 2.13163e-15
vn -6.31672e-17 3.60956e-16 -1
vt -39.3701 7.87402
vt -39.3701 -1.42109e-15
f 3/9/3 6/10/3 1/11/3

v -0.5 0.1 0.4
vt -2.4869e-16 3.93701
f 6/10/3 3/9/3 7/12/3

vt -3.93701 3.55271e-15
vn -1 0 -0
v -0.5 0.1 0.5
vt -1.77636e-15 3.93701
vt -3.93701 3.93701
f 3/13/4 8/14/4 7/15/4

f 8/14/4 3/13/4 2/7/4

vn -2.70717e-17 9.02389e-17 1
vt 39.3701 7.87402
vt -4.8089e-32 3.93701
f 2/7/5 5/16/5 8/17/5

vt 39.3701 3.55271e-15
f 5/16/5 2/7/5 4/18/5

vt 1.69198e-13 39.9582
vn -0.0995037 0.995037 4.2763e-16
vt -3.93701 0.391747
vt -1.77636e-15 0.391747
f 5/19/6 7/20/6 8/21/6

vt -3.93701 39.9582
f 7/20/6 5/19/6 6/22/6

