# Alias OBJ Model File
# Exported from SketchUp, (c) 2000-2012 Trimble Navigation Limited
# File units = meters

mtllib BorderCorner.mtl

g Mesh1 Group1 Model

usemtl M_0035_Tan
v -0.4 -2.40445e-31 0.4
vt -3.93701 3.93701
vn -3.41814e-17 -1 6.76792e-16
v -0.5 9.02389e-17 0.5
vt 1.21437e-31 -2.40445e-30
v -0.5 9.02389e-17 0.4
vt 1.21437e-31 3.93701
f 1/1/1 2/2/1 3/3/1

v -0.4 9.02389e-17 0.5
vt -3.93701 -2.49553e-30
f 2/2/1 1/1/1 4/4/1

vt 3.93701 -9.46633e-30
vn 1 0 -0
v -0.4 0.1 0.5
vt 0 3.93701
vt 0 3.55271e-15
f 1/5/2 5/6/2 4/7/2

v -0.4 0.1 0.4
vt 3.93701 3.93701
f 5/6/2 1/5/2 6/8/2

vt 2.44005e-17 2.96059e-15
vn 6.19773e-18 1.50398e-16 -1
vt -3.93701 -5.92119e-16
f 3/9/3 6/1/3 1/10/3

v -0.5 0.1 0.4
vt 2.44005e-17 3.93701
f 6/1/3 3/9/3 7/11/3

vn -1 0 -0
vt -3.93701 3.55271e-15
f 2/7/4 7/1/4 3/12/4

v -0.5 0.1 0.5
f 7/1/4 2/7/4 8/6/4

vn 0 0 1
f 2/7/5 5/8/5 8/6/5

vt 3.93701 3.55271e-15
f 5/8/5 2/7/5 4/13/5

vt 3.93701 0
vn 0 1 -0
vt 0 0
f 5/14/6 7/6/6 8/15/6

f 7/6/6 5/14/6 6/8/6

