# Made using Asset Forge (www.assetforge.io) version 1.3 

mtllib Door2.mtl 

v -0.1800001 0 -0.4750001
v -0.1200001 0 -0.48
v -0.1800001 0 -0.4800001
v -0.1200001 0 -0.475
v -0.1200001 0.0908164 -0.475
v -0.1800001 0.0908164 -0.4750001
v -0.1800001 0.0908164 -0.4800001
v -0.2000001 0 -0.48
v -0.1848641 0.0908164 -0.48
v -0.2000001 0.0908164 -0.48
v 0.2 0 -0.5000001
v -0.2000001 0 -0.5
v 0.2 0 -0.4800001
v -0.08000007 0 -0.48
v -0.08000007 0.0908164 -0.48
v -0.1200001 0.0908164 -0.48
v -0.08000007 0.0908164 -0.4750001
v -0.2000001 0.0908164 -0.47
v -0.2000001 0.15 -0.48
v -0.1800001 0.15 -0.4800001
v -0.1800001 0.12 -0.4800001
v -0.1750001 0.15 -0.48
v -0.1800001 0.45 -0.4800001
v -0.1250001 0.45 -0.48
v -0.1800001 0.509184 -0.4800001
v -0.1200001 0.509184 -0.48
v -0.1151361 0.509184 -0.48
v -0.1200001 0.6 -0.48
v -0.08000007 0.6 -0.48
v -0.08000007 0.509184 -0.48
v -0.08000007 0.509184 -0.4750001
v -0.08000007 0.6 -0.4750001
v -0.1200001 0.6 -0.475
v -0.1200001 0.509184 -0.475
v 0.2 0.509184 -0.4700001
v -0.02000006 0.509184 -0.4750001
v 0.01999994 0.509184 -0.4750001
v 0.07999995 0.509184 -0.4750001
v 0.12 0.509184 -0.4750001
v 0.18 0.509184 -0.4750001
v 0.18 0.509184 -0.4800001
v 0.2 0.509184 -0.4800001
v 0.2 0.6 -0.4800001
v 0.18 0.6 -0.4800001
v 0.12 0.509184 -0.48
v 0.12 0.6 -0.48
v 0.115136 0.509184 -0.4800001
v 0.07999995 0.6 -0.48
v 0.07999995 0.509184 -0.48
v 0.12 0.48 -0.48
v 0.125 0.45 -0.4800001
v 0.18 0.45 -0.4800001
v 0.2 0.45 -0.4800001
v 0.2 0.45 -0.4700001
v 0.18 0 -0.4800001
v 0.2 0.0908164 -0.4800001
v 0.184864 0.0908164 -0.48
v 0.18 0.0908164 -0.4800001
v 0.18 0.0908164 -0.4750001
v 0.18 0 -0.4750001
v 0.12 0 -0.4750001
v 0.12 0 -0.48
v 0.07999995 0 -0.48
v 0.01999994 0 -0.48
v -0.02000006 0 -0.48
v -0.08000007 0 -0.4750001
v -0.02000006 0 -0.4750001
v -0.02000006 0.0908164 -0.4750001
v 0.12 0.0908164 -0.4750001
v 0.2 0.0908164 -0.4700001
v 0.18 0.12 -0.4800001
v 0.18 0.15 -0.4800001
v 0.2 0.15 -0.4800001
v 0.2 0.15 -0.4700001
v 0.18 0.15 -0.4750001
v 0.175 0.15 -0.4750001
v -0.2000001 0.15 -0.47
v 0.18 0.6 -0.4750001
v 0.18 0.45 -0.4750001
v 0.125 0.45 -0.4750001
v 0.12 0.45 -0.4750001
v -0.2000001 0.45 -0.47
v 0.07999995 0.45 -0.4750001
v 0.01999994 0.45 -0.4750001
v -0.02000006 0.45 -0.4750001
v -0.08000007 0.45 -0.4750001
v -0.1200001 0.45 -0.475
v -0.1250001 0.45 -0.475
v -0.1800001 0.45 -0.4750001
v -0.2000001 0.45 -0.48
v -0.2000001 0.509184 -0.48
v -0.2000001 0.509184 -0.47
v -0.1800001 0.509184 -0.4750001
v -0.1800001 0.6 -0.4800001
v -0.2000001 0.6 -0.48
v -0.1800001 0.6 -0.4750001
v -0.1800001 0.15 -0.4750001
v -0.1750001 0.15 -0.475
v -0.1200001 0.15 -0.475
v -0.1200001 0.15 -0.48
v -0.1200001 0.45 -0.48
v -0.08000007 0.45 -0.48
v -0.08000007 0.15 -0.4750001
v -0.08000007 0.15 -0.48
v -0.02000006 0.15 -0.4750001
v 0.01999994 0.15 -0.4750001
v 0.07999995 0.15 -0.4750001
v 0.12 0.15 -0.4750001
v 0.07999995 0.15 -0.48
v 0.12 0.15 -0.48
v 0.12 0.45 -0.48
v 0.07999995 0.45 -0.48
v 0.01999994 0.45 -0.48
v 0.01999994 0.15 -0.48
v -0.02000006 0.15 -0.48
v -0.02000006 0.45 -0.48
v 0.12 0.6 -0.4750001
v 0.07999995 0.6 -0.4750001
v 0.01999994 0.6 -0.4750001
v 0.01999994 0.6 -0.48
v 0.01999994 0.509184 -0.48
v -0.02000006 0.509184 -0.48
v -0.02000006 0.6 -0.4750001
v -0.02000006 0.6 -0.48
v 0.175 0.15 -0.4800001
v 0.12 0.0908164 -0.48
v 0.07999995 0.0908164 -0.48
v 0.07999995 0.0908164 -0.4750001
v 0.07999995 0 -0.4750001
v 0.01999994 0 -0.4750001
v 0.01999994 0.0908164 -0.48
v 0.01999994 0.0908164 -0.4750001
v -0.02000006 0.0908164 -0.48
v -0.2000001 0 -0.46
v -0.2000001 0.6 -0.46
v -0.2600001 0 -0.46
v -0.2600001 0.66 -0.46
v 0.2 0.6 -0.4600001
v 0.26 0.66 -0.4600001
v 0.2 0 -0.4600001
v 0.26 0 -0.4600001
v 0.26 0 -0.5000001
v 0.26 0.66 -0.5000001
v -0.2600001 0.66 -0.5
v -0.2600001 0 -0.5
vn 0 -1 0
vn 1.192093E-07 0 1
vn -1 0 1.192093E-07
vn 1 0 -1.192093E-07
vn 1.435091E-17 -1 8.248501E-16
vn 0 1 0
vn -5.281642E-17 1 2.59437E-14
vn 1.192093E-07 -2.52847E-15 1
vn 8.453323E-17 -1 2.52669E-15
vn 1.192093E-07 8.78775E-15 1
vn 1.192093E-07 2.55473E-15 1
vn -1 -2.4841E-16 1.192093E-07
vn -1 -3.75996E-16 1.192093E-07
vn -1 -9.917E-33 1.192093E-07
vn -1 1.821688E-44 1.192093E-07
vn 1.192093E-07 -7.85915E-16 1
vn -1.579179E-14 1 7.895911E-14
vn 1.355253E-20 1 9.475091E-14
vn 1.694066E-21 -1 1.80478E-14
vn -3.498631E-31 -1 -3.49863E-31
vn -1.192093E-07 0 -1
vt 0.1800001 0.475
vt 0.1200001 0.48
vt 0.1800001 0.48
vt 0.1200001 0.475
vt -0.1800001 0
vt -0.1200001 0.0908164
vt -0.1200001 0
vt -0.1800001 0.0908164
vt -0.475 0
vt -0.48 0.0908164
vt -0.475 0.0908164
vt -0.48 0
vt -0.2000001 0
vt -0.1848641 0.0908164
vt -0.2000001 0.0908164
vt 0.2000001 0.48
vt -0.2 0.5000001
vt 0.2000001 0.5000001
vt -0.2 0.4800001
vt 0.2 0
vt -0.08000007 0
vt -0.08000007 0.0908164
vt 0.48 0
vt 0.475 0.0908164
vt 0.48 0.0908164
vt 0.475 0
vt 0.08000007 0.48
vt 0.08000007 0.4750001
vt 0.2000001 0.47
vt 0.1848641 0.48
vt -0.2000001 0.15
vt -0.1800001 0.15
vt -0.1800001 0.12
vt -0.1750001 0.15
vt -0.1800001 0.45
vt -0.1250001 0.45
vt -0.1800001 0.509184
vt -0.1200001 0.509184
vt -0.1151361 0.509184
vt -0.1200001 0.6
vt -0.08000007 0.6
vt -0.08000007 0.509184
vt -0.48 0.6
vt -0.4750001 0.509184
vt -0.48 0.509184
vt -0.4750001 0.6
vt 0.48 0.509184
vt 0.475 0.6
vt 0.48 0.6
vt 0.475 0.509184
vt 0.1200001 -0.48
vt 0.08000007 -0.4750001
vt 0.1200001 -0.475
vt 0.1151361 -0.48
vt 0.08000007 -0.48
vt -0.2 -0.4700001
vt 0.02000006 -0.4750001
vt -0.01999995 -0.4750001
vt -0.07999995 -0.4750001
vt -0.12 -0.4750001
vt -0.18 -0.4750001
vt -0.18 -0.4800001
vt -0.2 -0.4800001
vt 0.18 0.509184
vt 0.2 0.6
vt 0.2 0.509184
vt 0.18 0.6
vt 0.12 0.509184
vt 0.12 0.6
vt 0.115136 0.509184
vt 0.07999995 0.6
vt 0.07999995 0.509184
vt -0.115136 -0.48
vt -0.07999995 -0.48
vt -0.12 -0.48
vt 0.12 0.48
vt 0.125 0.45
vt 0.18 0.45
vt 0.2 0.45
vt -0.4800001 0.509184
vt -0.4700001 0.45
vt -0.4800001 0.45
vt -0.4700001 0.509184
vt 0.18 0
vt 0.2 0.0908164
vt 0.184864 0.0908164
vt 0.18 0.0908164
vt 0.4800001 0
vt 0.4750001 0.0908164
vt 0.4800001 0.0908164
vt 0.4750001 0
vt -0.18 0.4800001
vt -0.12 0.4750001
vt -0.18 0.4750001
vt -0.12 0.48
vt 0.12 0
vt 0.07999995 0
vt 0.01999995 0
vt -0.02000006 0
vt 0.02000006 0.48
vt 0.02000006 0.4750001
vt -0.02000006 0.0908164
vt -0.4750001 0
vt -0.48 0.0908164
vt -0.4750001 0.0908164
vt -0.48 0
vt -0.2 0.4700001
vt -0.184864 0.4800001
vt 0.18 0.12
vt 0.18 0.15
vt 0.2 0.15
vt -0.4800001 0.15
vt -0.4700001 0.0908164
vt -0.4800001 0.0908164
vt -0.4700001 0.15
vt -0.175 -0.4750001
vt 0.2000001 -0.47
vt 0.4800001 0.509184
vt 0.4750001 0.6
vt 0.4800001 0.6
vt 0.4750001 0.509184
vt 0.4800001 0.45
vt 0.4750001 0.45
vt -0.125 0.4750001
vt 0.12 0.45
vt -0.07999995 0.4750001
vt -0.01999995 0.4750001
vt 0.1250001 0.475
vt -0.2000001 0.45
vt -0.2000001 0.509184
vt 0.47 0.45
vt 0.48 0.45
vt 0.47 0.509184
vt 0.1800001 -0.475
vt 0.2000001 -0.48
vt 0.1800001 -0.48
vt -0.1800001 0.6
vt -0.2000001 0.6
vt -0.48 0.6
vt -0.475 0.509184
vt -0.48 0.509184
vt -0.475 0.6
vt -0.475 0.45
vt -0.48 0.15
vt -0.48 0.45
vt -0.475 0.15
vt -0.1200001 0.45
vt -0.1200001 0.15
vt 0.475 0.45
vt 0.48 0.15
vt 0.475 0.15
vt -0.4750001 0.15
vt -0.48 0.45
vt -0.4750001 0.45
vt -0.48 0.15
vt -0.08000007 0.15
vt 0.175 0.15
vt -0.02000006 0.15
vt 0.01999995 0.15
vt 0.07999995 0.15
vt 0.12 0.15
vt 0.07999995 0.45
vt 0.48 0.15
vt 0.4750001 0.45
vt 0.48 0.45
vt 0.4750001 0.15
vt 0.01999995 0.45
vt 0.02000006 -0.48
vt -0.01999995 -0.48
vt -0.01999995 0.48
vt -0.02000006 0.45
vt -0.08000007 0.45
vt -0.07999995 0.48
vt -0.48 0.48
vt 0.48 0.509184
vt 0.4750001 0.6
vt 0.48 0.6
vt 0.4750001 0.509184
vt 0.01999995 0.509184
vt 0.01999995 0.6
vt -0.02000006 0.6
vt -0.02000006 0.509184
vt 0.4800001 0.15
vt 0.4750001 0.15
vt -0.125 0.48
vt -0.175 -0.4800001
vt 0.4800001 0.12
vt 0.1750001 -0.475
vt 0.1750001 -0.48
vt 0.47 0.15
vt 0.47 0.0908164
vt 0.1250001 0.48
vt 0.12 0.0908164
vt 0.07999995 0.0908164
vt 0.48 0
vt 0.4750001 0.0908164
vt 0.48 0.0908164
vt 0.4750001 0
vt 0.01999995 0.0908164
vt 0.46 0
vt 0.46 0.6
vt -0.2600001 0
vt -0.2600001 0.66
vt 0.26 0.66
vt 0.26 0
vt 0.4600001 0.66
vt 0.5000001 0
vt 0.4600001 0
vt 0.5000001 0.66
vt -0.26 -0.4600001
vt 0.2600001 -0.5
vt -0.26 -0.5000001
vt 0.2600001 -0.46
vt -0.46 0
vt -0.5 0.66
vt -0.46 0.66
vt -0.5 0
vt 0.2600001 0.46
vt 0.2600001 0.5
vt 0.2000001 0.46
vt -0.4800001 0.6
vt -0.4600001 0.6
vt -0.4600001 0
vt -0.4800001 0
vt -0.26 0.4600001
vt -0.2 0.4600001
vt -0.26 0.5000001
vt -0.26 0
vt 0.2600001 0.66
vt -0.2 0
vt -0.26 0.66
vt 0.2000001 0
vt 0.2600001 0

usemtl M_0042_Sienna (Instance) (Instance)
usemap M_0042_Sienna (Instance) (Instance)
f 3/3/1 2/2/1 1/1/1
f 4/4/1 1/1/1 2/2/1
f 4/7/2 5/6/2 1/5/2
f 6/8/2 1/5/2 5/6/2
f 6/11/3 7/10/3 1/9/3
f 3/12/3 1/9/3 7/10/3
f 3/5/2 7/8/2 8/13/2
f 9/14/2 8/13/2 7/8/2
f 10/15/2 8/13/2 9/14/2
f 12/18/1 11/17/1 8/16/1
f 13/19/1 8/16/1 11/17/1
f 3/5/1 8/13/1 13/20/1
f 2/7/1 3/5/1 13/20/1
f 14/21/1 2/7/1 13/20/1
f 14/21/2 15/22/2 2/7/2
f 16/6/2 2/7/2 15/22/2
f 16/25/4 5/24/4 2/23/4
f 4/26/4 2/23/4 5/24/4
f 16/2/5 15/27/5 5/4/5
f 17/28/5 5/4/5 15/27/5
f 17/28/5 18/29/5 5/4/5
f 5/4/5 18/29/5 6/1/5
f 6/1/5 18/29/5 7/3/5
f 7/3/5 18/29/5 9/30/5
f 10/16/5 9/30/5 18/29/5
f 10/15/2 9/14/2 19/31/2
f 19/31/2 9/14/2 20/32/2
f 21/33/2 20/32/2 9/14/2
f 21/33/2 22/34/2 20/32/2
f 20/32/2 22/34/2 23/35/2
f 24/36/2 23/35/2 22/34/2
f 23/35/2 24/36/2 25/37/2
f 25/37/2 24/36/2 26/38/2
f 27/39/2 26/38/2 24/36/2
f 26/38/2 27/39/2 28/40/2
f 28/40/2 27/39/2 29/41/2
f 30/42/2 29/41/2 27/39/2
f 30/45/3 31/44/3 29/43/3
f 32/46/3 29/43/3 31/44/3
f 28/49/4 33/48/4 26/47/4
f 34/50/4 26/47/4 33/48/4
f 34/53/6 31/52/6 26/51/6
f 26/51/6 31/52/6 27/54/6
f 30/55/6 27/54/6 31/52/6
f 34/53/6 35/56/6 31/52/6
f 31/52/6 35/56/6 36/57/6
f 36/57/6 35/56/6 37/58/6
f 37/58/6 35/56/6 38/59/6
f 38/59/6 35/56/6 39/60/6
f 39/60/6 35/56/6 40/61/6
f 40/61/6 35/56/6 41/62/6
f 42/63/6 41/62/6 35/56/6
f 42/66/2 43/65/2 41/64/2
f 44/67/2 41/64/2 43/65/2
f 41/64/2 44/67/2 45/68/2
f 46/69/2 45/68/2 44/67/2
f 45/68/2 46/69/2 47/70/2
f 48/71/2 47/70/2 46/69/2
f 49/72/2 47/70/2 48/71/2
f 49/74/6 39/60/6 47/73/6
f 45/75/6 47/73/6 39/60/6
f 50/76/2 45/68/2 47/70/2
f 50/76/2 51/77/2 45/68/2
f 45/68/2 51/77/2 41/64/2
f 52/78/2 41/64/2 51/77/2
f 41/64/2 52/78/2 42/66/2
f 53/79/2 42/66/2 52/78/2
f 53/82/3 54/81/3 42/80/3
f 35/83/3 42/80/3 54/81/3
f 13/20/2 56/85/2 55/84/2
f 57/86/2 55/84/2 56/85/2
f 58/87/2 55/84/2 57/86/2
f 58/90/4 59/89/4 55/88/4
f 60/91/4 55/88/4 59/89/4
f 60/94/1 61/93/1 55/92/1
f 62/95/1 55/92/1 61/93/1
f 55/84/1 62/96/1 13/20/1
f 62/96/1 63/97/1 13/20/1
f 63/97/1 64/98/1 13/20/1
f 64/98/1 65/99/1 13/20/1
f 65/99/1 14/21/1 13/20/1
f 14/27/1 65/100/1 66/28/1
f 67/101/1 66/28/1 65/100/1
f 67/99/2 68/102/2 66/21/2
f 17/22/2 66/21/2 68/102/2
f 17/105/3 15/104/3 66/103/3
f 14/106/3 66/103/3 15/104/3
f 68/101/5 18/29/5 17/28/5
f 69/93/5 18/29/5 68/101/5
f 59/94/5 18/29/5 69/93/5
f 18/29/5 59/94/5 70/107/5
f 70/107/5 59/94/5 56/19/5
f 56/19/5 59/94/5 57/108/5
f 58/92/5 57/108/5 59/94/5
f 58/87/2 57/86/2 71/109/2
f 71/109/2 57/86/2 72/110/2
f 72/110/2 57/86/2 73/111/2
f 56/85/2 73/111/2 57/86/2
f 56/114/3 70/113/3 73/112/3
f 74/115/3 73/112/3 70/113/3
f 73/63/7 72/62/7 74/56/7
f 75/61/7 74/56/7 72/62/7
f 76/116/7 74/56/7 75/61/7
f 77/117/7 74/56/7 76/116/7
f 77/31/8 18/15/8 74/111/8
f 70/85/8 74/111/8 18/15/8
f 44/120/4 78/119/4 41/118/4
f 40/121/4 41/118/4 78/119/4
f 41/118/4 40/121/4 52/122/4
f 79/123/4 52/122/4 40/121/4
f 52/92/9 53/19/9 79/94/9
f 54/107/9 79/94/9 53/19/9
f 80/124/9 79/94/9 54/107/9
f 79/78/10 40/64/10 80/77/10
f 39/68/10 80/77/10 40/64/10
f 81/125/10 80/77/10 39/68/10
f 80/124/9 82/29/9 81/93/9
f 81/93/9 82/29/9 83/126/9
f 83/126/9 82/29/9 84/127/9
f 84/127/9 82/29/9 85/101/9
f 85/101/9 82/29/9 86/28/9
f 86/28/9 82/29/9 87/4/9
f 87/4/9 82/29/9 88/128/9
f 88/128/9 82/29/9 89/1/9
f 89/1/9 82/29/9 23/3/9
f 90/16/9 23/3/9 82/29/9
f 23/35/2 25/37/2 90/129/2
f 91/130/2 90/129/2 25/37/2
f 90/132/4 91/47/4 82/131/4
f 92/133/4 82/131/4 91/47/4
f 92/130/11 82/129/11 35/66/11
f 54/79/11 35/66/11 82/129/11
f 82/29/9 80/124/9 54/107/9
f 35/56/6 93/134/6 92/117/6
f 92/117/6 93/134/6 91/135/6
f 25/136/6 91/135/6 93/134/6
f 25/37/2 94/137/2 91/130/2
f 95/138/2 91/130/2 94/137/2
f 25/141/12 93/140/12 94/139/12
f 96/142/12 94/139/12 93/140/12
f 96/137/2 93/37/2 33/40/2
f 34/38/2 33/40/2 93/37/2
f 93/134/6 35/56/6 34/53/6
f 93/134/6 34/53/6 25/136/6
f 26/51/6 25/136/6 34/53/6
f 90/129/2 19/31/2 23/35/2
f 20/32/2 23/35/2 19/31/2
f 23/145/13 20/144/13 89/143/13
f 97/146/13 89/143/13 20/144/13
f 97/32/2 98/34/2 89/35/2
f 89/35/2 98/34/2 88/36/2
f 88/36/2 98/34/2 87/147/2
f 99/148/2 87/147/2 98/34/2
f 99/151/4 100/150/4 87/149/4
f 101/132/4 87/149/4 100/150/4
f 101/2/9 102/27/9 87/4/9
f 86/28/9 87/4/9 102/27/9
f 86/154/3 102/153/3 103/152/3
f 104/155/3 103/152/3 102/153/3
f 104/55/7 100/51/7 103/52/7
f 99/53/7 103/52/7 100/51/7
f 99/148/7 76/157/7 103/156/7
f 103/156/7 76/157/7 105/158/7
f 105/158/7 76/157/7 106/159/7
f 106/159/7 76/157/7 107/160/7
f 76/157/7 108/161/7 107/160/7
f 107/59/7 108/60/7 109/74/7
f 110/75/7 109/74/7 108/60/7
f 110/161/2 111/125/2 109/160/2
f 112/162/2 109/160/2 111/125/2
f 112/165/4 83/164/4 109/163/4
f 107/166/4 109/163/4 83/164/4
f 107/160/2 83/162/2 106/159/2
f 84/167/2 106/159/2 83/162/2
f 84/154/3 113/153/3 106/152/3
f 114/155/3 106/152/3 113/153/3
f 114/169/7 115/168/7 106/58/7
f 105/57/7 106/58/7 115/168/7
f 105/166/4 115/163/4 85/164/4
f 116/165/4 85/164/4 115/163/4
f 116/100/9 113/170/9 85/101/9
f 84/127/9 85/101/9 113/170/9
f 116/171/2 115/158/2 113/167/2
f 114/159/2 113/167/2 115/158/2
f 105/158/2 85/171/2 103/156/2
f 86/172/2 103/156/2 85/171/2
f 112/173/9 111/95/9 83/126/9
f 81/93/9 83/126/9 111/95/9
f 81/154/3 111/153/3 108/152/3
f 110/155/3 108/152/3 111/153/3
f 111/153/14 81/154/14 50/174/14
f 39/44/14 50/174/14 81/154/14
f 45/45/14 50/174/14 39/44/14
f 45/45/15 39/44/15 46/43/15
f 117/46/15 46/43/15 39/44/15
f 48/177/4 118/176/4 49/175/4
f 38/178/4 49/175/4 118/176/4
f 38/59/6 39/60/6 49/74/6
f 38/72/2 118/71/2 37/179/2
f 119/180/2 37/179/2 118/71/2
f 119/46/3 120/43/3 37/44/3
f 121/45/3 37/44/3 120/43/3
f 121/169/6 122/168/6 37/58/6
f 36/57/6 37/58/6 122/168/6
f 36/178/4 122/175/4 123/176/4
f 124/177/4 123/176/4 122/175/4
f 32/41/2 31/42/2 123/181/2
f 36/182/2 123/181/2 31/42/2
f 123/101/1 32/28/1 124/100/1
f 29/27/1 124/100/1 32/28/1
f 118/126/1 119/127/1 48/173/1
f 120/170/1 48/173/1 119/127/1
f 124/181/2 122/182/2 120/180/2
f 121/179/2 120/180/2 122/182/2
f 78/94/1 117/93/1 44/92/1
f 46/95/1 44/92/1 117/93/1
f 117/69/2 39/68/2 78/67/2
f 40/64/2 78/67/2 39/68/2
f 39/60/6 40/61/6 45/75/6
f 41/62/6 45/75/6 40/61/6
f 81/125/16 108/161/16 80/77/16
f 108/161/16 76/157/16 80/77/16
f 80/77/16 76/157/16 79/78/16
f 75/110/16 79/78/16 76/157/16
f 75/184/4 72/183/4 79/123/4
f 52/122/4 79/123/4 72/183/4
f 79/94/1 80/124/1 52/92/1
f 51/185/1 52/92/1 80/124/1
f 51/77/2 125/157/2 52/78/2
f 72/110/2 52/78/2 125/157/2
f 52/78/2 72/110/2 53/79/2
f 73/111/2 53/79/2 72/110/2
f 71/109/2 72/110/2 125/157/2
f 72/62/17 125/186/17 75/61/17
f 76/116/17 75/61/17 125/186/17
f 72/183/4 75/184/4 71/187/4
f 71/187/4 75/184/4 58/90/4
f 59/89/4 58/90/4 75/184/4
f 98/34/7 76/157/7 99/148/7
f 97/32/7 76/157/7 98/34/7
f 76/116/7 97/134/7 77/117/7
f 77/117/7 97/134/7 19/135/7
f 20/136/7 19/135/7 97/134/7
f 97/134/18 98/188/18 20/136/18
f 22/189/18 20/136/18 98/188/18
f 19/150/4 77/190/4 10/25/4
f 18/191/4 10/25/4 77/190/4
f 104/156/2 102/172/2 100/148/2
f 101/147/2 100/148/2 102/172/2
f 88/128/19 89/1/19 24/192/19
f 23/3/19 24/192/19 89/1/19
f 69/193/2 61/96/2 59/87/2
f 60/84/2 59/87/2 61/96/2
f 69/105/3 126/104/3 61/103/3
f 62/106/3 61/103/3 126/104/3
f 62/96/2 126/193/2 63/97/2
f 127/194/2 63/97/2 126/193/2
f 127/197/4 128/196/4 63/195/4
f 129/198/4 63/195/4 128/196/4
f 129/126/1 130/127/1 63/173/1
f 64/170/1 63/173/1 130/127/1
f 64/106/3 130/103/3 131/104/3
f 132/105/3 131/104/3 130/103/3
f 132/127/5 68/101/5 131/170/5
f 133/100/5 131/170/5 68/101/5
f 133/102/2 65/99/2 131/199/2
f 64/98/2 131/199/2 65/99/2
f 133/197/4 68/196/4 65/195/4
f 67/198/4 65/195/4 68/196/4
f 128/194/5 68/102/5 132/199/5
f 68/102/5 128/194/5 69/193/5
f 69/93/5 128/126/5 126/95/5
f 127/173/5 126/95/5 128/126/5
f 132/199/2 130/98/2 128/194/2
f 129/97/2 128/194/2 130/98/2
f 7/8/2 21/33/2 9/14/2

usemtl M_0035_Tan (Instance) (Instance)
usemap M_0035_Tan (Instance) (Instance)
f 18/191/4 8/23/4 10/25/4
f 8/23/4 18/191/4 134/200/4
f 135/201/4 134/200/4 18/191/4
f 134/13/2 135/138/2 136/202/2
f 136/202/2 135/138/2 137/203/2
f 135/138/2 138/65/2 137/203/2
f 137/203/2 138/65/2 139/204/2
f 138/65/2 140/20/2 139/204/2
f 141/205/2 139/204/2 140/20/2
f 141/208/4 142/207/4 139/206/4
f 143/209/4 139/206/4 142/207/4
f 143/212/6 144/211/6 139/210/6
f 137/213/6 139/210/6 144/211/6
f 137/216/3 144/215/3 136/214/3
f 145/217/3 136/214/3 144/215/3
f 145/219/1 12/18/1 136/218/1
f 8/16/1 136/218/1 12/18/1
f 134/220/1 136/218/1 8/16/1
f 32/28/20 33/4/20 29/27/20
f 28/2/20 29/27/20 33/4/20
f 42/80/3 35/83/3 43/221/3
f 43/221/3 35/83/3 138/222/3
f 35/83/3 54/81/3 138/222/3
f 54/81/3 73/112/3 138/222/3
f 73/112/3 74/115/3 138/222/3
f 74/115/3 70/113/3 138/222/3
f 138/222/3 70/113/3 140/223/3
f 70/113/3 56/114/3 140/223/3
f 13/224/3 140/223/3 56/114/3
f 140/226/1 13/19/1 141/225/1
f 141/225/1 13/19/1 142/227/1
f 11/17/1 142/227/1 13/19/1
f 11/230/21 144/229/21 142/228/21
f 143/231/21 142/228/21 144/229/21
f 12/232/21 144/229/21 11/230/21
f 145/233/21 144/229/21 12/232/21
f 77/190/4 135/201/4 18/191/4
f 19/150/4 135/201/4 77/190/4
f 82/131/4 135/201/4 19/150/4
f 92/133/4 135/201/4 82/131/4
f 91/47/4 135/201/4 92/133/4
f 95/49/4 135/201/4 91/47/4
f 95/16/20 94/3/20 135/220/20
f 96/1/20 135/220/20 94/3/20
f 33/4/20 135/220/20 96/1/20
f 135/220/20 33/4/20 138/226/20
f 33/4/20 118/126/20 138/226/20
f 118/126/20 78/94/20 138/226/20
f 138/226/20 78/94/20 43/19/20
f 44/92/20 43/19/20 78/94/20
f 90/132/4 82/131/4 19/150/4
f 117/93/20 118/126/20 46/95/20
f 48/173/20 46/95/20 118/126/20
f 124/100/20 120/170/20 123/101/20
f 119/127/20 123/101/20 120/170/20
f 119/180/20 33/40/20 123/181/20
f 123/181/20 33/40/20 32/41/20
f 118/71/20 33/40/20 119/180/20
f 78/67/20 118/71/20 117/69/20
f 53/82/3 73/112/3 54/81/3
