# Made using Asset Forge (www.assetforge.io) version 1.3 

mtllib Ladder2.mtl 

v 0.12 0.35 0.02000002
v 0.12 0.35 -0.01999998
v -0.12 0.35 0.01999998
v -0.12 0.35 -0.02000002
v 0.12 0 0.02000002
v 0.12 0 -0.01999998
v 0.12 0.17 0.02000002
v 0.12 0.17 -0.01999998
v -0.12 0.17 0.01999998
v -0.12 0.17 -0.02000002
v -0.12 0.21 0.01999998
v -0.12 0.21 -0.02000002
v 0.12 0.39 -0.01999998
v -0.12 0.39 -0.02000002
v 0.12 0.39 0.02000002
v -0.12 0.39 0.01999998
v 0.12 0.21 -0.01999998
v 0.12 0.21 0.02000002
v 0.17 1 0.03000002
v 0.13 1 0.03000002
v 0.18 1 0.02000001
v 0.12 1 0.02000002
v 0.18 1 -0.01999998
v 0.12 1 -0.01999998
v 0.17 1 -0.02999999
v 0.13 1 -0.02999999
v 0.17 0 -0.02999999
v 0.18 0 -0.01999998
v 0.12 0.93 0.02000002
v -0.12 0.93 0.01999998
v 0.12 0.93 -0.01999998
v -0.12 0.93 -0.02000002
v 0.12 0.75 0.02000002
v 0.12 0.71 0.02000002
v -0.12 0.75 0.01999998
v -0.12 0.71 0.01999998
v 0.12 0.75 -0.01999998
v 0.12 0.89 0.02000002
v 0.12 0.89 -0.01999998
v 0.18 0 0.02000001
v 0.17 0 0.03000002
v 0.12 0.57 0.02000002
v 0.12 0.53 0.02000002
v -0.12 0.57 0.01999998
v -0.12 0.53 0.01999998
v 0.13 0 0.03000002
v -0.12 0.53 -0.02000002
v -0.12 0.57 -0.02000002
v -0.12 0.75 -0.02000002
v -0.13 0 -0.03000002
v -0.13 1 -0.03000002
v -0.17 0 -0.03000002
v -0.17 1 -0.03000002
v 0.13 0 -0.02999999
v -0.12 0 -0.02000002
v -0.12 0 0.01999998
v 0.12 0.57 -0.01999998
v -0.13 0 0.02999999
v -0.17 0 0.02999999
v -0.18 0 0.01999998
v -0.18 0 -0.02000001
v 0.12 0.71 -0.01999998
v 0.12 0.53 -0.01999998
v -0.12 1 -0.02000002
v -0.12 1 0.01999998
v -0.18 1 0.01999998
v -0.18 1 -0.02000001
v -0.12 0.89 0.01999998
v -0.12 0.89 -0.02000002
v -0.13 1 0.02999999
v -0.17 1 0.02999999
v -0.12 0.71 -0.02000002
vn 0 -1 0
vn -1 0 -1.192093E-07
vn 1.192093E-07 0 -1
vn -1.192093E-07 0 1
vn 0 1 0
vn 0.7071071 0 -0.7071066
vn 1 0 1.192093E-07
vn 0.7071069 0 0.7071067
vn -0.7071071 0 0.7071066
vn -0.7071071 0 0.7071066
vn -0.7071069 0 -0.7071067
vn 0.7071071 0 -0.7071066
vn 0.707107 0 0.7071066
vt -0.12 -0.02000002
vt -0.12 0.01999999
vt 0.12 -0.01999999
vt 0.12 0.02000002
vt 0.02000002 0
vt -0.01999999 0
vt 0.02000002 0.17
vt -0.01999999 0.17
vt 0.01999999 0.17
vt -0.02000002 0.17
vt 0.01999999 0.21
vt -0.02000002 0.21
vt -0.12 0.35
vt -0.12 0.39
vt 0.12 0.35
vt 0.12 0.39
vt -0.12 0.17
vt -0.12 0.21
vt 0.12 0.17
vt 0.12 0.21
vt 0.01999999 0.35
vt -0.02000002 0.35
vt 0.01999999 0.39
vt -0.02000002 0.39
vt -0.12 0.02000002
vt 0.12 0.01999999
vt -0.12 -0.01999999
vt 0.12 -0.02000002
vt -0.17 0.03000003
vt -0.13 0.03000002
vt -0.18 0.02000002
vt -0.18 -0.01999998
vt -0.17 -0.02999998
vt -0.13 -0.02999999
vt 0.02999998 0
vt 0.01999998 0
vt 0.02999998 1
vt 0.01999998 1
vt 0.12 0.75
vt 0.12 0.71
vt -0.12 0.75
vt -0.12 0.71
vt 0.02000002 0.75
vt -0.01999999 0.75
vt 0.02000002 0.89
vt -0.01999999 0.89
vt -0.02000002 1
vt -0.02000002 0
vt -0.03000003 1
vt -0.03000003 0
vt 0.12 0.57
vt 0.12 0.53
vt -0.12 0.57
vt -0.12 0.53
vt 0.02000002 0.93
vt -0.01999999 0.93
vt 0.02000002 1
vt -0.01999999 1
vt 0.17 1
vt 0.17 0
vt 0.13 1
vt 0.13 0
vt 0.02000002 0.21
vt -0.01999999 0.21
vt 0.02000002 0.35
vt -0.01999999 0.35
vt 0.01999999 0.53
vt -0.02000002 0.53
vt 0.01999999 0.57
vt -0.02000002 0.57
vt -0.17 0
vt -0.17 1
vt -0.13 0
vt -0.13 1
vt 0.13 -0.02999999
vt 0.17 -0.02999998
vt 0.18 -0.01999998
vt 0.18 0.02000002
vt 0.13 0.03000002
vt 0.17 0.03000003
vt 0.02000002 0.57
vt -0.01999999 0.57
vt 0.02000002 0.71
vt -0.01999999 0.71
vt 0.03000002 0
vt 0.03000002 1
vt 0.02000002 0.39
vt 0.02000002 0.53
vt -0.02999999 0
vt -0.02999999 1
vt 0.12 0
vt 0.12 1
vt 0.12 0.89
vt 0.12 0.93
vt 0.01999999 0.89
vt -0.02000002 0.89
vt 0.01999999 0.93
vt -0.02000002 0.93
vt -0.13 -0.03000002
vt -0.17 -0.03000003
vt -0.18 -0.02000002
vt -0.18 0.01999998
vt -0.17 0.02999998
vt -0.13 0.02999999
vt -0.01999999 0.53
vt -0.01999999 0.39
vt 0.01999999 0.71
vt -0.02000002 0.71
vt 0.01999999 0.75
vt -0.02000002 0.75
vt -0.12 0.89
vt -0.12 0.93
vt 0.13 0.02999999
vt 0.17 0.02999998
vt 0.18 0.01999998
vt 0.18 -0.02000002
vt 0.13 -0.03000002
vt 0.17 -0.03000003

usemtl M_0042_Sienna (Instance) (Instance)
usemap M_0042_Sienna (Instance) (Instance)
f 3/3/1 2/2/1 1/1/1
f 2/2/1 3/3/1 4/4/1
f 7/7/2 6/6/2 5/5/2
f 6/6/2 7/7/2 8/8/2
f 11/11/2 10/10/2 9/9/2
f 10/10/2 11/11/2 12/12/2
f 4/15/3 13/14/3 2/13/3
f 13/14/3 4/15/3 14/16/3
f 16/14/4 1/15/4 15/16/4
f 1/15/4 16/14/4 3/13/4
f 10/19/3 17/18/3 8/17/3
f 17/18/3 10/19/3 12/20/3
f 16/23/2 4/22/2 3/21/2
f 4/22/2 16/23/2 14/24/2
f 17/27/5 11/26/5 18/25/5
f 11/26/5 17/27/5 12/28/5
f 21/31/5 20/30/5 19/29/5
f 20/30/5 21/31/5 22/25/5
f 22/25/5 21/31/5 23/32/5
f 22/25/5 23/32/5 24/27/5
f 24/27/5 23/32/5 25/33/5
f 24/27/5 25/33/5 26/34/5
f 11/18/4 7/19/4 18/20/4
f 7/19/4 11/18/4 9/17/4
f 25/37/6 28/36/6 27/35/6
f 28/36/6 25/37/6 23/38/6
f 13/27/5 16/26/5 15/25/5
f 16/26/5 13/27/5 14/28/5
f 13/23/7 1/22/7 2/21/7
f 1/22/7 13/23/7 15/24/7
f 31/27/5 30/26/5 29/25/5
f 30/26/5 31/27/5 32/28/5
f 35/41/4 34/40/4 33/39/4
f 34/40/4 35/41/4 36/42/4
f 38/45/2 37/44/2 33/43/2
f 37/44/2 38/45/2 39/46/2
f 19/49/8 40/48/8 21/47/8
f 40/48/8 19/49/8 41/50/8
f 44/53/4 43/52/4 42/51/4
f 43/52/4 44/53/4 45/54/4
f 22/57/2 31/56/2 29/55/2
f 31/56/2 22/57/2 24/58/2
f 20/61/4 41/60/4 19/59/4
f 41/60/4 20/61/4 46/62/4
f 1/65/2 17/64/2 18/63/2
f 17/64/2 1/65/2 2/66/2
f 44/69/2 47/68/2 45/67/2
f 47/68/2 44/69/2 48/70/2
f 37/27/5 35/26/5 33/25/5
f 35/26/5 37/27/5 49/28/5
f 52/60/3 51/61/3 50/62/3
f 51/61/3 52/60/3 53/59/3
f 54/73/3 25/72/3 27/71/3
f 25/72/3 54/73/3 26/74/3
f 10/7/7 56/6/7 55/5/7
f 56/6/7 10/7/7 9/8/7
f 9/3/1 8/2/1 7/1/1
f 8/2/1 9/3/1 10/4/1
f 57/27/5 44/26/5 42/25/5
f 44/26/5 57/27/5 48/28/5
f 59/76/1 56/3/1 58/75/1
f 56/3/1 59/76/1 60/77/1
f 56/3/1 60/77/1 55/4/1
f 55/4/1 60/77/1 61/78/1
f 55/4/1 61/78/1 50/79/1
f 50/79/1 61/78/1 52/80/1
f 34/83/2 57/82/2 42/81/2
f 57/82/2 34/83/2 62/84/2
f 47/52/3 57/53/3 63/54/3
f 57/53/3 47/52/3 48/51/3
f 20/86/9 5/5/9 46/85/9
f 5/5/9 20/86/9 7/7/9
f 7/7/9 20/86/9 18/63/9
f 18/63/9 20/86/9 1/65/9
f 1/65/9 20/86/9 15/87/9
f 15/87/9 20/86/9 43/88/9
f 43/88/9 20/86/9 42/81/9
f 42/81/9 20/86/9 34/83/10
f 34/83/10 20/86/9 33/43/9
f 33/43/9 20/86/9 38/45/9
f 38/45/9 20/86/9 29/55/9
f 29/55/9 20/86/9 22/57/10
f 23/38/7 40/48/7 28/36/7
f 40/48/7 23/38/7 21/47/7
f 6/6/11 26/90/11 54/89/11
f 26/90/11 6/6/11 24/58/11
f 24/92/5 6/91/5 8/19/5
f 24/92/5 8/19/5 17/20/5
f 24/92/5 17/20/5 2/15/5
f 24/92/5 2/15/5 13/16/5
f 24/92/5 13/16/5 63/52/5
f 24/92/5 63/52/5 57/51/5
f 24/92/5 57/51/5 62/40/5
f 24/92/5 62/40/5 37/39/5
f 24/92/5 37/39/5 39/93/5
f 24/92/5 39/93/5 31/94/5
f 64/57/7 30/56/7 32/55/7
f 30/56/7 64/57/7 65/58/7
f 17/11/7 7/10/7 8/9/7
f 7/10/7 17/11/7 18/12/7
f 66/38/2 61/48/2 60/36/2
f 61/48/2 66/38/2 67/47/2
f 30/97/2 69/96/2 68/95/2
f 69/96/2 30/97/2 32/98/2
f 68/3/1 39/2/1 38/1/1
f 39/2/1 68/3/1 69/4/1
f 71/72/4 58/73/4 70/74/4
f 58/73/4 71/72/4 59/71/4
f 5/1/1 41/100/1 46/99/1
f 41/100/1 5/1/1 40/101/1
f 40/101/1 5/1/1 6/2/1
f 40/101/1 6/2/1 28/102/1
f 28/102/1 6/2/1 27/103/1
f 27/103/1 6/2/1 54/104/1
f 51/86/6 55/5/6 50/85/6
f 55/5/6 51/86/6 10/7/6
f 10/7/6 51/86/6 12/63/6
f 12/63/6 51/86/6 4/65/6
f 4/65/6 51/86/6 14/87/6
f 14/87/6 51/86/6 47/88/6
f 47/88/6 51/86/6 48/81/6
f 48/81/6 51/86/6 72/83/12
f 72/83/12 51/86/6 49/43/6
f 49/43/6 51/86/6 69/45/6
f 69/45/6 51/86/6 32/55/6
f 32/55/6 51/86/6 64/57/12
f 72/83/7 44/82/7 48/81/7
f 44/82/7 72/83/7 36/84/7
f 70/90/8 30/56/8 65/58/13
f 30/56/8 70/90/8 68/46/8
f 68/46/8 70/90/8 35/44/8
f 35/44/8 70/90/8 36/84/13
f 36/84/13 70/90/8 44/82/8
f 44/82/8 70/90/8 45/105/8
f 45/105/8 70/90/8 16/106/8
f 16/106/8 70/90/8 3/66/8
f 3/66/8 70/90/8 11/64/8
f 11/64/8 70/90/8 9/8/8
f 9/8/8 70/90/8 56/6/8
f 56/6/8 70/90/8 58/89/8
f 71/37/9 60/36/9 59/35/9
f 60/36/9 71/37/9 66/38/9
f 57/69/7 43/68/7 63/67/7
f 43/68/7 57/69/7 42/70/7
f 43/88/2 13/106/2 15/87/2
f 13/106/2 43/88/2 63/105/2
f 72/40/3 37/41/3 62/42/3
f 37/41/3 72/40/3 49/39/3
f 61/48/11 53/49/11 52/50/11
f 53/49/11 61/48/11 67/47/11
f 37/109/7 34/108/7 62/107/7
f 34/108/7 37/109/7 33/110/7
f 4/65/7 11/64/7 12/63/7
f 11/64/7 4/65/7 3/66/7
f 36/3/1 62/2/1 34/1/1
f 62/2/1 36/3/1 72/4/1
f 45/3/1 63/2/1 43/1/1
f 63/2/1 45/3/1 47/4/1
f 69/93/3 31/112/3 39/111/3
f 31/112/3 69/93/3 32/94/3
f 47/88/7 16/106/7 14/87/7
f 16/106/7 47/88/7 45/105/7
f 65/26/5 71/114/5 70/113/5
f 71/114/5 65/26/5 66/115/5
f 66/115/5 65/26/5 64/28/5
f 66/115/5 64/28/5 67/116/5
f 67/116/5 64/28/5 51/117/5
f 67/116/5 51/117/5 53/118/5
f 30/112/4 38/93/4 29/94/4
f 38/93/4 30/112/4 68/111/4
f 35/109/2 72/108/2 36/107/2
f 72/108/2 35/109/2 49/110/2
f 69/45/7 35/44/7 49/43/7
f 35/44/7 69/45/7 68/46/7
f 31/97/7 38/96/7 39/95/7
f 38/96/7 31/97/7 29/98/7
