# Alias OBJ Model File
# Exported from SketchUp, (c) 2000-2012 Trimble Navigation Limited
# File units = meters

mtllib Pillar1.mtl

g Mesh1 Model

usemtl M_0042_Sienna
v -0.4 0 0.4
vt 15.748 -15.748
vn 0 -1 -0
v -0.5 0 0.5
vt 19.685 -19.685
v -0.5 0 0.4
vt 19.685 -15.748
f 1/1/1 2/2/1 3/3/1

v -0.4 0 0.5
vt 15.748 -19.685
f 2/2/1 1/1/1 4/4/1

v -0.4 0.76 0.48
vt -18.8976 29.9213
vn 1 1.4678e-32 -1.74637e-32
vt -19.685 2.3115e-31
vt -15.748 2.3115e-31
f 5/5/2 4/6/2 1/7/2

v -0.4 1 0.5
vt -19.685 39.3701
f 4/6/2 5/5/2 6/8/2

v -0.4 0.861746 0.48
vt -18.8976 33.927
f 7/9/2 6/8/2 5/5/2

v -0.4 1 0.4
vt -15.748 39.3701
f 6/8/2 7/9/2 8/10/2

v -0.4 0.861746 0.42
vt -16.5354 33.927
f 8/10/2 7/9/2 9/11/2

usemtl FrontColor
vn 1 0 -0
v -0.4 0.76 0.42
vt -16.5354 29.9213
f 7/9/3 10/12/3 9/11/3

f 10/12/3 7/9/3 5/5/3

usemtl M_0042_Sienna
v -0.3 1 0.48
vt -11.811 39.3701
vn 0 0 1
vt -15.748 33.927
vt -15.748 29.9213
f 11/13/4 7/14/4 5/15/4

v -0.345282 1 0.48
vt -13.5938 39.3701
f 7/14/4 11/13/4 12/16/4

vt -11.811 -18.8976
vn 0 1 -0
v -0.345282 1 0.42
vt -13.5938 -16.5354
vt -13.5938 -18.8976
f 11/17/5 13/18/5 12/19/5

v -0.3 1 0.42
vt -11.811 -16.5354
f 13/18/5 11/17/5 14/20/5

vt -18.8976 31.7989
vn 0.923077 -0.384615 2.1429e-17
vt -16.5354 21.5627
vt -16.5354 31.7989
f 11/21/6 10/22/6 14/23/6

vt -18.8976 21.5627
f 10/22/6 11/21/6 5/24/6

f 5/5/2 1/7/2 10/12/2

f 10/12/2 1/7/2 9/11/2

f 8/10/2 9/11/2 1/7/2

vt 15.748 0
vn 0 0 -1
v -0.42 0.76 0.4
vt 16.5354 29.9213
vt 15.748 39.3701
f 1/25/7 15/26/7 8/27/7

v -0.48 0.76 0.4
vt 18.8976 29.9213
f 15/26/7 1/25/7 16/28/7

vt 19.685 0
f 3/29/7 16/28/7 1/25/7

v -0.5 1 0.4
vt 19.685 39.3701
f 16/28/7 3/29/7 17/30/7

vn -1 0 -0
f 2/29/8 17/27/8 3/25/8

v -0.5 1 0.5
f 17/27/8 2/29/8 18/30/8

vt -19.685 0
f 2/31/4 6/10/4 18/8/4

vt -15.748 0
f 6/10/4 2/31/4 4/32/4

vt -15.748 -19.685
vt -19.685 -15.748
vt -19.685 -19.685
f 6/33/5 17/34/5 18/35/5

vt -15.748 -15.748
f 17/34/5 6/33/5 8/36/5

v -0.42 0.861746 0.4
vt 16.5354 33.927
f 8/27/7 19/37/7 17/30/7

f 8/27/7 15/26/7 19/37/7

v -0.42 1 0.3
f 20/13/3 19/14/3 15/15/3

v -0.42 1 0.342394
vt -13.4801 39.3701
f 19/14/3 20/13/3 21/38/3

v -0.48 1 0.3
vt -18.8976 -11.811
vt -16.5354 -13.4801
vt -16.5354 -11.811
f 22/39/5 21/40/5 20/41/5

v -0.48 1 0.342394
vt -18.8976 -13.4801
f 21/40/5 22/39/5 23/42/5

vt 15.748 29.9213
vn -1 6.54176e-17 6.62921e-16
vt 13.4801 39.3701
vt 11.811 39.3701
f 16/43/9 23/44/9 22/45/9

v -0.48 0.861746 0.4
vt 15.748 33.927
f 23/44/9 16/43/9 24/46/9

vt 18.8976 33.927
f 16/28/7 17/30/7 24/47/7

f 24/47/7 17/30/7 19/37/7

vt -16.5354 31.157
vn 4.80027e-17 0.384615 0.923077
vt -18.8976 25.2603
vt -16.5354 25.2603
f 21/48/10 24/49/10 19/50/10

vt -18.8976 31.157
f 24/49/10 21/48/10 23/51/10

usemtl FrontColor
f 15/26/7 24/47/7 19/37/7

f 24/47/7 15/26/7 16/28/7

usemtl M_0042_Sienna
vt 18.8976 31.7989
vn 3.26506e-17 -0.384615 -0.923077
vt 16.5354 21.5627
vt 18.8976 21.5627
f 22/52/11 15/53/11 16/54/11

vt 16.5354 31.7989
f 15/53/11 22/52/11 20/55/11

f 9/46/7 14/45/7 10/43/7

vt 13.5938 39.3701
f 14/45/7 9/46/7 13/56/7

vt 18.8976 25.7507
vn -0.929823 0.368007 6.52773e-17
vt 16.5354 31.6046
vt 16.5354 25.7507
f 7/57/12 13/58/12 9/59/12

vt 18.8976 31.6046
f 13/58/12 7/57/12 12/60/12

