# Alias OBJ Model File
# Exported from SketchUp, (c) 2000-2012 Trimble Navigation Limited
# File units = meters

mtllib Pillar2.mtl

g Mesh1 Model

usemtl M_0042_Sienna
v 0.15 1 0.48
vt 5.90551 39.3701
vn 0 0 1
v 0.05 0.861746 0.48
vt 1.9685 33.927
v 0.05 0.76 0.48
vt 1.9685 29.9213
f 1/1/1 2/2/1 3/3/1

v 0.104718 1 0.48
vt 4.12277 39.3701
f 2/2/1 1/1/1 4/4/1

vt 5.90551 -18.8976
vn 0 1 -0
v 0.104718 1 0.42
vt 4.12277 -16.5354
vt 4.12277 -18.8976
f 1/5/2 5/6/2 4/7/2

v 0.15 1 0.42
vt 5.90551 -16.5354
f 5/6/2 1/5/2 6/8/2

vt -18.8976 38.613
vn 0.923077 -0.384615 2.1429e-17
v 0.05 0.76 0.42
vt -16.5354 28.3767
vt -16.5354 38.613
f 1/9/3 7/10/3 6/11/3

vt -18.8976 28.3767
f 7/10/3 1/9/3 3/12/3

usemtl FrontColor
vt -16.5354 29.9213
vn 1 0 -0
vt -18.8976 33.927
vt -18.8976 29.9213
f 7/13/4 2/14/4 3/15/4

v 0.05 0.861746 0.42
vt -16.5354 33.927
f 2/14/4 7/13/4 8/16/4

usemtl M_0042_Sienna
vt -1.9685 33.927
vn 0 0 -1
vt -5.90551 39.3701
vt -1.9685 29.9213
f 8/17/5 6/18/5 7/19/5

vt -4.12277 39.3701
f 6/18/5 8/17/5 5/20/5

vt 18.8976 32.2705
vn -0.929823 0.368007 6.52773e-17
vt 16.5354 38.1244
vt 16.5354 32.2705
f 2/21/6 5/22/6 8/23/6

vt 18.8976 38.1244
f 5/22/6 2/21/6 4/24/6

v 0.05 1 0.4
vt -15.748 39.3701
vn 1 1.4678e-32 -1.74637e-32
f 9/25/7 2/14/7 8/16/7

v 0.05 1 0.5
vt -19.685 39.3701
f 10/26/7 2/14/7 9/25/7

f 2/14/7 10/26/7 3/15/7

v 0.05 0 0.5
vt -19.685 -2.88938e-32
f 11/27/7 3/15/7 10/26/7

v 0.05 0 0.4
vt -15.748 -2.88938e-32
f 3/15/7 11/27/7 12/28/7

v -0.05 0 0.5
vt 1.9685 -19.685
vn 0 -1 -0
vt -1.9685 -15.748
vt -1.9685 -19.685
f 13/29/8 12/30/8 11/31/8

v -0.05 0 0.4
vt 1.9685 -15.748
f 12/30/8 13/29/8 14/32/8

vt 19.685 0
vn -1 0 9.02389e-16
v -0.05 0.76 0.48
vt 18.8976 29.9213
vt 15.748 0
f 13/33/9 15/34/9 14/35/9

v -0.05 0.861746 0.48
vt 18.8976 33.927
f 15/34/9 13/33/9 16/36/9

v -0.05 1 0.5
vt 19.685 39.3701
f 17/37/9 16/36/9 13/33/9

v -0.05 1 0.4
vt 15.748 39.3701
f 16/36/9 17/37/9 18/38/9

f 17/31/2 9/32/2 18/30/2

f 9/32/2 17/31/2 10/29/2

vt -1.9685 0
vn 4.51195e-15 0 1
vt 1.9685 39.3701
vt -1.9685 39.3701
f 13/39/10 10/40/10 17/41/10

vt 1.9685 0
f 10/40/10 13/39/10 11/42/10

vn -4.06075e-15 0 -1
f 12/39/11 18/40/11 9/41/11

f 18/40/11 12/39/11 14/42/11

v -0.05 0.76 0.42
vt 16.5354 29.9213
f 14/35/9 19/43/9 18/38/9

f 14/35/9 15/34/9 19/43/9

v -0.15 1 0.48
vt 18.8976 38.613
vn -0.923077 -0.384615 2.69367e-16
vt 16.5354 28.3767
vt 18.8976 28.3767
f 20/44/12 19/45/12 15/46/12

v -0.15 1 0.42
vt 16.5354 38.613
f 19/45/12 20/44/12 21/47/12

v -0.104718 1 0.48
vt -4.12277 -18.8976
vt -5.90551 -16.5354
vt -5.90551 -18.8976
f 22/48/2 21/49/2 20/50/2

v -0.104718 1 0.42
vt -4.12277 -16.5354
f 21/49/2 22/48/2 23/51/2

vt -18.8976 38.1244
vn 0.929823 0.368007 -3.15898e-15
v -0.05 0.861746 0.42
vt -16.5354 32.2705
vt -16.5354 38.1244
f 22/52/13 24/53/13 23/54/13

vt -18.8976 32.2705
f 24/53/13 22/52/13 16/55/13

vn -1.39432e-15 -2.89817e-16 1
f 20/18/14 16/17/14 22/20/14

f 16/17/14 20/18/14 15/19/14

usemtl FrontColor
vt 16.5354 33.927
vn -1 0 2.25597e-15
f 24/56/15 15/34/15 16/36/15

f 15/34/15 24/56/15 19/43/15

usemtl M_0042_Sienna
vn 3.28394e-15 3.39797e-16 -1
f 21/1/16 24/2/16 19/3/16

f 24/2/16 21/1/16 23/4/16

f 24/56/9 18/38/9 19/43/9

f 16/36/9 18/38/9 24/56/9

f 9/25/7 8/16/7 12/28/7

f 7/13/7 12/28/7 8/16/7

f 3/15/7 12/28/7 7/13/7

