# Alias OBJ Model File
# Exported from SketchUp, (c) 2000-2012 Trimble Navigation Limited
# File units = meters

mtllib Trapdoor.mtl

g Mesh1 Model

usemtl M_0035_Tan
v 0.25 0.04 0.25
vt 9.84252 -9.84252
vn 0 1 -0
v -0.25 0.04 0.22
vt -9.84252 -8.66142
v -0.25 0.04 0.25
vt -9.84252 -9.84252
f 1/1/1 2/2/1 3/3/1

v -0.19 0.04 0.19
vt -7.48031 -7.48031
f 2/2/1 1/1/1 4/4/1

v 0.19 0.04 0.19
vt 7.48031 -7.48031
f 4/4/1 1/1/1 5/5/1

v 0.19 0.04 -0.19
vt 7.48031 7.48031
f 5/5/1 1/1/1 6/6/1

v 0.25 0.04 -0.25
vt 9.84252 9.84252
f 7/7/1 6/6/1 1/1/1

v -0.19 0.04 -0.19
vt -7.48031 7.48031
f 7/7/1 8/8/1 6/6/1

v -0.25 0.04 -0.25
vt -9.84252 9.84252
f 9/9/1 8/8/1 7/7/1

f 8/8/1 9/9/1 4/4/1

f 2/2/1 4/4/1 9/9/1

vt -9.84252 1.5748
vn -1 0 -0
v -0.25 0 0.22
vt 8.66142 0
vt 8.66142 1.5748
f 9/10/2 10/11/2 2/12/2

v -0.25 0 -0.25
vt -9.84252 0
f 10/11/2 9/10/2 11/13/2

vt 9.84252 1.5748
vn 0 0 -1
v 0.25 0 -0.25
vt 9.84252 0
f 9/14/3 12/13/3 11/15/3

f 12/13/3 9/14/3 7/10/3

vn 1 0 -0
f 1/10/4 12/15/4 7/14/4

v 0.25 0 0.25
f 12/15/4 1/10/4 13/13/4

vn 0 0 1
v -0.25 0 0.25
f 1/14/5 14/13/5 13/15/5

f 14/13/5 1/14/5 3/10/5

f 2/12/2 14/15/2 3/14/2

f 14/15/2 2/12/2 10/11/2

vt 9.84252 -8.66142
vn 0 -1 -0
f 10/16/6 12/9/6 14/1/6

f 12/9/6 10/16/6 11/7/6

f 14/1/6 12/9/6 13/3/6

vt -7.48031 1.5748
v -0.19 0.02 0.155
vt -6.10236 0.787402
vt 7.48031 1.5748
f 4/17/4 15/18/4 8/19/4

v -0.19 0.01 0.155
vt -6.10236 0.393701
f 4/17/4 16/20/4 15/18/4

v -0.19 0.01 0.19
vt -7.48031 0.393701
f 16/20/4 4/17/4 17/21/4

vn 1.75901e-31 3.44425e-31 -1
v -0.17625 0.01 0.19
vt 6.93898 0.393701
vt 7.48031 0.393701
f 4/19/7 18/22/7 17/23/7

v -0.17625 0.015 0.19
vt 6.93898 0.590551
f 18/22/7 4/19/7 19/24/7

v -0.105 0.015 0.19
vt 4.13386 0.590551
f 19/24/7 4/19/7 20/25/7

v -0.08125 0.015 0.19
vt 3.19882 0.590551
f 20/25/7 4/19/7 21/26/7

v -0.01 0.015 0.19
vt 0.393701 0.590551
f 21/26/7 4/19/7 22/27/7

v 0.01375 0.015 0.19
vt -0.541339 0.590551
f 22/27/7 4/19/7 23/28/7

v 0.085 0.015 0.19
vt -3.34646 0.590551
f 23/28/7 4/19/7 24/29/7

v 0.10625 0.015 0.19
vt -4.18307 0.590551
f 24/29/7 4/19/7 25/30/7

v 0.17625 0.015 0.19
vt -6.93898 0.590551
f 25/30/7 4/19/7 26/31/7

f 5/17/7 26/31/7 4/19/7

v 0.19 0.01 0.19
f 27/21/7 26/31/7 5/17/7

v 0.17625 0.01 0.19
vt -6.93898 0.393701
f 26/31/7 27/21/7 28/32/7

usemtl M_0042_Sienna
v 0.17625 0.01 0.155
vt 6.93898 -6.10236
vt 6.93898 -7.48031
f 27/5/1 29/33/1 28/34/1

v 0.19 0.01 0.155
vt 7.48031 -6.10236
f 29/33/1 27/5/1 30/35/1

usemtl M_0035_Tan
vt 6.10236 0.393701
v 0.19 0.02 0.155
vt 6.10236 0.787402
f 30/36/2 27/23/2 31/37/2

f 5/19/2 31/37/2 27/23/2

f 31/37/2 5/19/2 6/17/2

v 0.19 0.02 0.075
vt 2.95276 0.787402
f 31/37/2 6/17/2 32/38/2

v 0.19 0.01 0.075
vt 2.95276 0.393701
f 32/38/2 6/17/2 33/39/2

v 0.19 0.02 -0.075
vt -2.95276 0.787402
f 33/39/2 6/17/2 34/40/2

v 0.19 0.02 -0.155
f 34/40/2 6/17/2 35/18/2

v 0.19 0.01 -0.155
f 35/18/2 6/17/2 36/20/2

v 0.19 0.01 -0.19
f 36/20/2 6/17/2 37/21/2

vn 1.81732e-31 -6.73288e-31 1
v 0.17625 0.01 -0.19
f 6/19/8 38/22/8 37/23/8

v 0.17625 0.015 -0.19
f 38/22/8 6/19/8 39/24/8

v 0.10625 0.015 -0.19
vt 4.18307 0.590551
f 39/24/8 6/19/8 40/41/8

v 0.085 0.015 -0.19
vt 3.34646 0.590551
f 40/41/8 6/19/8 41/42/8

v 0.01375 0.015 -0.19
vt 0.541339 0.590551
f 41/42/8 6/19/8 42/43/8

v -0.01 0.015 -0.19
vt -0.393701 0.590551
f 42/43/8 6/19/8 43/44/8

v -0.08125 0.015 -0.19
vt -3.19882 0.590551
f 43/44/8 6/19/8 44/45/8

v -0.105 0.015 -0.19
vt -4.13386 0.590551
f 44/45/8 6/19/8 45/46/8

v -0.17625 0.015 -0.19
f 45/46/8 6/19/8 46/31/8

f 8/17/8 46/31/8 6/19/8

v -0.19 0.01 -0.19
f 47/21/8 46/31/8 8/17/8

v -0.17625 0.01 -0.19
f 46/31/8 47/21/8 48/32/8

usemtl M_0042_Sienna
v -0.17625 0.01 -0.155
vt -6.93898 6.10236
vt -6.93898 7.48031
f 47/8/1 49/47/1 48/48/1

v -0.19 0.01 -0.155
vt -7.48031 6.10236
f 49/47/1 47/8/1 50/49/1

usemtl M_0035_Tan
v -0.19 0.02 -0.155
f 47/23/4 51/37/4 50/36/4

f 8/19/4 51/37/4 47/23/4

v -0.19 0.02 -0.075
f 8/19/4 52/38/4 51/37/4

v -0.19 0.02 0.075
f 8/19/4 53/40/4 52/38/4

f 8/19/4 15/18/4 53/40/4

usemtl M_0042_Sienna
vt -7.48031 -2.95276
vt -7.48031 -6.10236
f 31/35/1 53/50/1 15/51/1

vt 7.48031 -2.95276
f 53/50/1 31/35/1 32/52/1

vt -7.48031 0.787402
vn -1.85439e-17 1.01807e-16 -1
v 0.17625 0.015 0.075
vt 7.48031 0.787402
f 32/53/9 54/31/9 53/54/9

f 33/21/9 54/31/9 32/53/9

v 0.17625 0.01 0.075
f 54/31/9 33/21/9 55/32/9

v 0.17625 0.01 -0.075
vt 6.93898 2.95276
vt 6.93898 -2.95276
f 33/52/1 56/55/1 55/56/1

v 0.19 0.01 -0.075
vt 7.48031 2.95276
f 56/55/1 33/52/1 57/57/1

usemtl M_0035_Tan
vt -2.95276 0.393701
f 57/58/2 33/39/2 34/40/2

usemtl M_0042_Sienna
vn 7.37553e-17 1.23346e-15 1
f 34/54/10 56/22/10 57/23/10

v 0.17625 0.015 -0.075
f 56/22/10 34/54/10 58/24/10

v 0.10625 0.015 -0.075
f 58/24/10 34/54/10 59/41/10

v 0.085 0.015 -0.075
f 59/41/10 34/54/10 60/42/10

v 0.01375 0.015 -0.075
f 60/42/10 34/54/10 61/43/10

v -0.01 0.015 -0.075
f 61/43/10 34/54/10 62/44/10

v -0.08125 0.015 -0.075
f 62/44/10 34/54/10 63/45/10

v -0.105 0.015 -0.075
f 63/45/10 34/54/10 64/46/10

v -0.17625 0.015 -0.075
f 64/46/10 34/54/10 65/31/10

f 52/53/10 65/31/10 34/54/10

v -0.19 0.01 -0.075
f 66/21/10 65/31/10 52/53/10

v -0.17625 0.01 -0.075
f 65/31/10 66/21/10 67/32/10

vt -7.48031 2.95276
v -0.17625 0.01 0.075
vt -6.93898 -2.95276
vt -6.93898 2.95276
f 66/59/1 68/60/1 67/61/1

v -0.19 0.01 0.075
f 68/60/1 66/59/1 69/50/1

usemtl M_0035_Tan
f 66/39/4 53/40/4 69/58/4

f 52/38/4 53/40/4 66/39/4

usemtl M_0042_Sienna
f 53/54/9 68/22/9 69/23/9

v -0.17625 0.015 0.075
f 68/22/9 53/54/9 70/24/9

v -0.105 0.015 0.075
f 70/24/9 53/54/9 71/25/9

v -0.08125 0.015 0.075
f 71/25/9 53/54/9 72/26/9

v -0.01 0.015 0.075
f 72/26/9 53/54/9 73/27/9

v 0.01375 0.015 0.075
f 73/27/9 53/54/9 74/28/9

v 0.085 0.015 0.075
f 74/28/9 53/54/9 75/29/9

v 0.10625 0.015 0.075
f 75/29/9 53/54/9 76/30/9

f 76/30/9 53/54/9 54/31/9

vt 4.18307 2.95276
vt 4.18307 -2.95276
f 54/56/1 59/62/1 76/63/1

f 59/62/1 54/56/1 58/55/1

vt -2.95276 0.590551
vt 2.95276 0.590551
f 54/64/4 56/39/4 58/65/4

f 56/39/4 54/64/4 55/58/4

v 0.10625 0.01 0.075
f 59/64/2 77/39/2 76/65/2

v 0.10625 0.01 -0.075
f 77/39/2 59/64/2 78/58/2

v 0.085 0.01 -0.075
vt 3.34646 0.393701
vt 4.18307 0.393701
f 59/41/10 79/66/10 78/67/10

f 79/66/10 59/41/10 60/42/10

f 75/64/4 79/39/4 60/65/4

v 0.085 0.01 0.075
f 79/39/4 75/64/4 80/58/4

vt -4.18307 0.393701
vt -3.34646 0.393701
f 75/29/9 77/68/9 80/69/9

f 77/68/9 75/29/9 76/30/9

vt 3.34646 2.95276
vt 3.34646 -2.95276
f 77/63/1 79/70/1 80/71/1

f 79/70/1 77/63/1 78/62/1

vt 0.541339 2.95276
f 61/72/1 75/71/1 60/70/1

vt 0.541339 -2.95276
f 75/71/1 61/72/1 74/73/1

v 0.01375 0.01 0.075
f 61/64/2 81/39/2 74/65/2

v 0.01375 0.01 -0.075
f 81/39/2 61/64/2 82/58/2

v -0.01 0.01 -0.075
vt -0.393701 0.393701
vt 0.541339 0.393701
f 61/43/10 83/74/10 82/75/10

f 83/74/10 61/43/10 62/44/10

f 73/64/4 83/39/4 62/65/4

v -0.01 0.01 0.075
f 83/39/4 73/64/4 84/58/4

vt -0.541339 0.393701
vt 0.393701 0.393701
f 73/27/9 81/76/9 84/77/9

f 81/76/9 73/27/9 74/28/9

vt -0.393701 2.95276
vt -0.393701 -2.95276
f 81/73/1 83/78/1 84/79/1

f 83/78/1 81/73/1 82/72/1

vt -3.19882 2.95276
f 63/80/1 73/79/1 62/78/1

vt -3.19882 -2.95276
f 73/79/1 63/80/1 72/81/1

v -0.08125 0.01 0.075
f 63/64/2 85/39/2 72/65/2

v -0.08125 0.01 -0.075
f 85/39/2 63/64/2 86/58/2

v -0.105 0.01 -0.075
vt -4.13386 0.393701
vt -3.19882 0.393701
f 63/45/10 87/82/10 86/83/10

f 87/82/10 63/45/10 64/46/10

f 71/64/4 87/39/4 64/65/4

v -0.105 0.01 0.075
f 87/39/4 71/64/4 88/58/4

vt 3.19882 0.393701
vt 4.13386 0.393701
f 71/25/9 85/84/9 88/85/9

f 85/84/9 71/25/9 72/26/9

vt -4.13386 2.95276
vt -4.13386 -2.95276
f 85/81/1 87/86/1 88/87/1

f 87/86/1 85/81/1 86/80/1

f 65/61/1 71/87/1 64/86/1

f 71/87/1 65/61/1 70/60/1

f 65/64/2 68/39/2 70/65/2

f 68/39/2 65/64/2 67/58/2

f 34/57/1 51/49/1 52/59/1

vt 7.48031 6.10236
f 51/49/1 34/57/1 35/88/1

v 0.17625 0.015 -0.155
f 35/53/3 89/31/3 51/54/3

f 36/21/3 89/31/3 35/53/3

v 0.17625 0.01 -0.155
f 89/31/3 36/21/3 90/32/3

vt 6.93898 7.48031
vt 6.93898 6.10236
f 36/88/1 38/89/1 90/90/1

f 38/89/1 36/88/1 37/6/1

vt 6.10236 0.590551
f 38/23/4 89/91/4 90/36/4

vt 7.48031 0.590551
f 89/91/4 38/23/4 39/92/4

vt 4.18307 7.48031
f 40/93/1 89/90/1 39/89/1

v 0.10625 0.015 -0.155
vt 4.18307 6.10236
f 89/90/1 40/93/1 91/94/1

vt -7.48031 0.590551
v 0.10625 0.01 -0.155
vt -6.10236 0.590551
f 40/95/2 92/20/2 91/96/2

v 0.10625 0.01 -0.19
f 92/20/2 40/95/2 93/21/2

usemtl M_0035_Tan
v 0.085 0.01 -0.19
f 40/41/8 94/66/8 93/67/8

f 94/66/8 40/41/8 41/42/8

usemtl M_0042_Sienna
v 0.085 0.015 -0.155
f 95/91/4 94/23/4 41/92/4

v 0.085 0.01 -0.155
f 94/23/4 95/91/4 96/36/4

f 95/29/3 92/68/3 96/69/3

f 92/68/3 95/29/3 91/30/3

f 95/29/3 51/54/3 91/30/3

v 0.01375 0.015 -0.155
f 97/28/3 51/54/3 95/29/3

v -0.01 0.015 -0.155
f 98/27/3 51/54/3 97/28/3

v -0.08125 0.015 -0.155
f 99/26/3 51/54/3 98/27/3

v -0.105 0.015 -0.155
f 100/25/3 51/54/3 99/26/3

v -0.17625 0.015 -0.155
f 101/24/3 51/54/3 100/25/3

f 49/22/3 51/54/3 101/24/3

f 51/54/3 49/22/3 50/23/3

f 46/95/2 49/20/2 101/96/2

f 49/20/2 46/95/2 48/21/2

vt -4.13386 6.10236
f 100/97/1 46/48/1 101/47/1

vt -4.13386 7.48031
f 46/48/1 100/97/1 45/98/1

v -0.105 0.01 -0.19
f 100/91/4 102/23/4 45/92/4

v -0.105 0.01 -0.155
f 102/23/4 100/91/4 103/36/4

v -0.08125 0.01 -0.155
f 100/25/3 104/84/3 103/85/3

f 104/84/3 100/25/3 99/26/3

f 44/95/2 104/20/2 99/96/2

v -0.08125 0.01 -0.19
f 104/20/2 44/95/2 105/21/2

usemtl M_0035_Tan
f 44/45/8 102/82/8 105/83/8

f 102/82/8 44/45/8 45/46/8

usemtl M_0042_Sienna
vt -3.19882 6.10236
vt -3.19882 7.48031
f 102/98/1 104/99/1 105/100/1

f 104/99/1 102/98/1 103/97/1

vt -0.393701 6.10236
f 98/101/1 44/100/1 99/99/1

vt -0.393701 7.48031
f 44/100/1 98/101/1 43/102/1

v -0.01 0.01 -0.19
f 98/91/4 106/23/4 43/92/4

v -0.01 0.01 -0.155
f 106/23/4 98/91/4 107/36/4

v 0.01375 0.01 -0.155
f 98/27/3 108/76/3 107/77/3

f 108/76/3 98/27/3 97/28/3

f 42/95/2 108/20/2 97/96/2

v 0.01375 0.01 -0.19
f 108/20/2 42/95/2 109/21/2

usemtl M_0035_Tan
f 42/43/8 106/74/8 109/75/8

f 106/74/8 42/43/8 43/44/8

usemtl M_0042_Sienna
vt 0.541339 6.10236
vt 0.541339 7.48031
f 106/102/1 108/103/1 109/104/1

f 108/103/1 106/102/1 107/101/1

vt 3.34646 6.10236
f 95/105/1 42/104/1 97/103/1

vt 3.34646 7.48031
f 42/104/1 95/105/1 41/106/1

f 91/30/3 51/54/3 89/31/3

f 92/94/1 94/106/1 96/105/1

f 94/106/1 92/94/1 93/93/1

v -0.17625 0.015 0.155
f 15/53/5 110/31/5 31/54/5

f 16/21/5 110/31/5 15/53/5

v -0.17625 0.01 0.155
f 110/31/5 16/21/5 111/32/5

vt -6.93898 -7.48031
vt -6.93898 -6.10236
f 16/51/1 18/107/1 111/108/1

f 18/107/1 16/51/1 17/4/1

f 18/23/2 110/91/2 111/36/2

f 110/91/2 18/23/2 19/92/2

vt -4.13386 -7.48031
f 20/109/1 110/108/1 19/107/1

v -0.105 0.015 0.155
vt -4.13386 -6.10236
f 110/108/1 20/109/1 112/110/1

v -0.105 0.01 0.155
f 20/95/4 113/20/4 112/96/4

v -0.105 0.01 0.19
f 113/20/4 20/95/4 114/21/4

usemtl M_0035_Tan
v -0.08125 0.01 0.19
f 20/25/7 115/84/7 114/85/7

f 115/84/7 20/25/7 21/26/7

usemtl M_0042_Sienna
v -0.08125 0.015 0.155
f 116/91/2 115/23/2 21/92/2

v -0.08125 0.01 0.155
f 115/23/2 116/91/2 117/36/2

f 116/45/5 113/82/5 117/83/5

f 113/82/5 116/45/5 112/46/5

f 116/45/5 31/54/5 112/46/5

v -0.01 0.015 0.155
f 118/44/5 31/54/5 116/45/5

v 0.01375 0.015 0.155
f 119/43/5 31/54/5 118/44/5

v 0.085 0.015 0.155
f 120/42/5 31/54/5 119/43/5

v 0.10625 0.015 0.155
f 121/41/5 31/54/5 120/42/5

v 0.17625 0.015 0.155
f 122/24/5 31/54/5 121/41/5

f 29/22/5 31/54/5 122/24/5

f 31/54/5 29/22/5 30/23/5

f 26/95/4 29/20/4 122/96/4

f 29/20/4 26/95/4 28/21/4

vt 4.18307 -6.10236
f 121/111/1 26/34/1 122/33/1

vt 4.18307 -7.48031
f 26/34/1 121/111/1 25/112/1

v 0.10625 0.01 0.19
f 121/91/2 123/23/2 25/92/2

v 0.10625 0.01 0.155
f 123/23/2 121/91/2 124/36/2

v 0.085 0.01 0.155
f 121/41/5 125/66/5 124/67/5

f 125/66/5 121/41/5 120/42/5

f 24/95/4 125/20/4 120/96/4

v 0.085 0.01 0.19
f 125/20/4 24/95/4 126/21/4

usemtl M_0035_Tan
f 24/29/7 123/68/7 126/69/7

f 123/68/7 24/29/7 25/30/7

usemtl M_0042_Sienna
vt 3.34646 -6.10236
vt 3.34646 -7.48031
f 123/112/1 125/113/1 126/114/1

f 125/113/1 123/112/1 124/111/1

vt 0.541339 -6.10236
f 119/115/1 24/114/1 120/113/1

vt 0.541339 -7.48031
f 24/114/1 119/115/1 23/116/1

v 0.01375 0.01 0.19
f 119/91/2 127/23/2 23/92/2

v 0.01375 0.01 0.155
f 127/23/2 119/91/2 128/36/2

v -0.01 0.01 0.155
f 119/43/5 129/74/5 128/75/5

f 129/74/5 119/43/5 118/44/5

f 22/95/4 129/20/4 118/96/4

v -0.01 0.01 0.19
f 129/20/4 22/95/4 130/21/4

usemtl M_0035_Tan
f 22/27/7 127/76/7 130/77/7

f 127/76/7 22/27/7 23/28/7

usemtl M_0042_Sienna
vt -0.393701 -6.10236
vt -0.393701 -7.48031
f 127/116/1 129/117/1 130/118/1

f 129/117/1 127/116/1 128/115/1

vt -3.19882 -6.10236
f 116/119/1 22/118/1 118/117/1

vt -3.19882 -7.48031
f 22/118/1 116/119/1 21/120/1

f 112/46/5 31/54/5 110/31/5

f 113/110/1 115/120/1 117/119/1

f 115/120/1 113/110/1 114/109/1

