# Made using Asset Forge (www.assetforge.io) version 1.3 

mtllib Windows1.mtl 

v -0.1500001 0.69 -0.5000001
v 0.15 0.31 -0.5000001
v 0.15 0.69 -0.5000001
v -0.1500001 0.31 -0.5000001
v -0.1500001 0.31 -0.47
v -0.1500001 0.69 -0.47
v 0.15 0.69 -0.4700001
v 0.15 0.31 -0.4700001
v 0.08999995 0.37 -0.4700001
v 0.08999995 0.63 -0.4700001
v -0.09000007 0.63 -0.4700001
v -0.03500006 0.63 -0.4850001
v 0.07499995 0.63 -0.4850001
v 0.08999995 0.63 -0.4900001
v 0.07499995 0.63 -0.4900001
v 0.08999995 0.605 -0.48
v 0.08999995 0.605 -0.4900001
v 0.08999995 0.565 -0.48
v 0.08999995 0.435 -0.48
v 0.08999995 0.395 -0.48
v 0.08999995 0.395 -0.4900001
v 0.08999995 0.37 -0.4900001
v 0.07499995 0.37 -0.4900001
v 0.07499995 0.37 -0.4850001
v 0.03499994 0.37 -0.4850001
v -0.09000007 0.37 -0.4700001
v -0.07500007 0.37 -0.485
v -0.09000007 0.37 -0.49
v -0.07500007 0.37 -0.49
v -0.09000007 0.395 -0.49
v -0.09000007 0.395 -0.48
v -0.09000007 0.435 -0.48
v -0.09000007 0.435 -0.49
v -0.09000007 0.565 -0.48
v -0.09000007 0.605 -0.48
v -0.09000007 0.605 -0.49
v -0.09000007 0.63 -0.49
v -0.07500007 0.63 -0.49
v -0.07500007 0.63 -0.485
v -0.02000006 0.63 -0.49
v -0.03500006 0.63 -0.4900001
v -0.02000006 0.63 -0.485
v 0.01999994 0.63 -0.4850001
v 0.03499994 0.63 -0.4850001
v 0.03499994 0.63 -0.4900001
v 0.01999994 0.63 -0.4900001
v 0.08999995 0.565 -0.4900001
v 0.08999995 0.435 -0.4900001
v -0.09000007 0.565 -0.49
v 0.01999994 0.37 -0.4900001
v 0.03499994 0.37 -0.4900001
v 0.01999994 0.37 -0.4850001
v -0.02000006 0.37 -0.485
v -0.03500006 0.37 -0.4850001
v -0.03500006 0.37 -0.4900001
v -0.02000006 0.37 -0.49
v 0.07499995 0.605 -0.4900001
v -0.07500007 0.395 -0.49
v -0.03500006 0.605 -0.4850001
v -0.07500007 0.605 -0.485
v 0.03499994 0.605 -0.4850001
v 0.07499995 0.605 -0.4850001
v 0.03499994 0.605 -0.4900001
v 0.01999994 0.605 -0.4900001
v 0.01999994 0.605 -0.4850001
v -0.02000006 0.605 -0.485
v -0.03500006 0.605 -0.4900001
v -0.02000006 0.605 -0.49
v -0.07500007 0.605 -0.49
v -0.03500006 0.565 -0.4850001
v 0.07499995 0.565 -0.4850001
v 0.07499995 0.565 -0.4900001
v 0.07499995 0.435 -0.4900001
v 0.07499995 0.435 -0.4850001
v 0.03499994 0.435 -0.4850001
v 0.01999994 0.435 -0.4850001
v -0.02000006 0.435 -0.485
v -0.03500006 0.435 -0.4850001
v -0.07500007 0.435 -0.485
v -0.07500007 0.435 -0.49
v -0.07500007 0.565 -0.49
v -0.07500007 0.565 -0.485
v -0.03500006 0.435 -0.4900001
v -0.03500006 0.565 -0.4900001
v -0.02000006 0.565 -0.49
v -0.02000006 0.565 -0.485
v 0.01999994 0.565 -0.4850001
v 0.03499994 0.565 -0.4850001
v 0.03499994 0.565 -0.4900001
v 0.03499994 0.435 -0.4900001
v 0.01999994 0.435 -0.4900001
v 0.01999994 0.565 -0.4900001
v -0.02000006 0.435 -0.49
v 0.07499995 0.395 -0.4850001
v 0.07499995 0.395 -0.4900001
v 0.03499994 0.395 -0.4850001
v 0.03499994 0.395 -0.4900001
v -0.03500006 0.395 -0.4850001
v -0.07500007 0.395 -0.485
v -0.02000006 0.395 -0.485
v 0.01999994 0.395 -0.4850001
v 0.01999994 0.395 -0.4900001
v -0.02000006 0.395 -0.49
v -0.03500006 0.395 -0.4900001
vn -1.192093E-07 0 -1
vn -1 0 1.192093E-07
vn 0 1 0
vn 1 0 -1.192093E-07
vn 0 -1 0
vn 1.192093E-07 0 1
vn -2.05882E-31 -1 4.29297E-31
vn -1 1.34361E-17 1.192093E-07
vn 2.212391E-16 1 7.286441E-16
vn 1 -1.34361E-17 -1.192093E-07
vn -1 -2.25597E-16 1.192093E-07
vn 1 3.38396E-16 -1.192093E-07
vn -1 2.25597E-16 1.192093E-07
vn 1 -2.25597E-16 -1.192093E-07
vn 1.192093E-07 1.15797E-31 1
vn 1 -4.33841E-17 -1.192093E-07
vn -1 2.1692E-17 1.192093E-07
vn 1.192093E-07 5.63993E-16 1
vn 4.612678E-32 -1 -1.77588E-31
vn -1 -4.51195E-16 1.192093E-07
vn -1 1.12799E-16 1.192093E-07
vn 1 2.25597E-16 -1.192093E-07
vt 0.1500001 0.69
vt -0.15 0.31
vt -0.15 0.69
vt 0.1500001 0.31
vt -0.5000001 0.69
vt -0.47 0.31
vt -0.5000001 0.31
vt -0.47 0.69
vt 0.1500001 -0.5000001
vt -0.15 -0.4700001
vt 0.1500001 -0.47
vt -0.15 -0.5000001
vt 0.5000001 0.31
vt 0.4700001 0.69
vt 0.5000001 0.69
vt 0.4700001 0.31
vt -0.15 0.5000001
vt 0.1500001 0.47
vt -0.15 0.4700001
vt 0.1500001 0.5000001
vt 0.08999996 0.37
vt 0.15 0.31
vt -0.1500001 0.31
vt 0.15 0.69
vt 0.08999996 0.63
vt -0.1500001 0.69
vt -0.09000007 0.63
vt -0.08999996 0.4700001
vt 0.03500006 0.4850001
vt 0.09000007 0.4700001
vt -0.07499995 0.4850001
vt -0.08999996 0.4900001
vt -0.07499995 0.4900001
vt -0.4900001 0.63
vt -0.48 0.605
vt -0.4900001 0.605
vt -0.4700001 0.63
vt -0.48 0.565
vt -0.48 0.435
vt -0.48 0.395
vt -0.4700001 0.37
vt -0.4900001 0.395
vt -0.4900001 0.37
vt -0.08999996 -0.4700001
vt -0.07499995 -0.4900001
vt -0.08999996 -0.4900001
vt -0.07499995 -0.4850001
vt -0.03499995 -0.4850001
vt 0.09000007 -0.4700001
vt 0.07500007 -0.4850001
vt 0.09000007 -0.4900001
vt 0.07500007 -0.4900001
vt 0.4900001 0.395
vt 0.4900001 0.37
vt 0.48 0.395
vt 0.4700001 0.37
vt 0.4700001 0.63
vt -0.09000007 0.37
vt 0.48 0.435
vt 0.4900001 0.435
vt 0.48 0.565
vt 0.48 0.605
vt 0.4900001 0.605
vt 0.4900001 0.63
vt 0.07500007 0.4900001
vt 0.09000007 0.4900001
vt 0.07500007 0.4850001
vt 0.02000006 0.4900001
vt 0.03500006 0.4900001
vt 0.02000006 0.4850001
vt -0.02000006 0.63
vt -0.03500006 0.63
vt 0.01999994 0.63
vt 0.03499995 0.63
vt 0.07499995 0.63
vt -0.03499994 0.4900001
vt -0.01999994 0.4850001
vt -0.03499995 0.4850001
vt -0.01999994 0.4900001
vt -0.4900001 0.565
vt -0.4900001 0.435
vt 0.4900001 0.565
vt -0.01999994 -0.4900001
vt -0.03499994 -0.4900001
vt -0.01999994 -0.4850001
vt 0.01999994 0.37
vt 0.03499995 0.37
vt -0.02000006 0.37
vt -0.03500006 0.37
vt -0.07500007 0.37
vt 0.02000006 -0.4850001
vt 0.03500006 -0.4900001
vt 0.02000006 -0.4900001
vt 0.03500006 -0.4850001
vt 0.07499995 0.605
vt 0.08999996 0.605
vt -0.07500007 0.395
vt -0.09000007 0.395
vt -0.03500006 0.605
vt -0.07500007 0.63
vt -0.07500007 0.605
vt -0.08999996 -0.48
vt 0.4850001 0.63
vt 0.4850001 0.605
vt 0.03499995 0.605
vt -0.4850001 0.605
vt -0.4850001 0.63
vt 0.01999994 0.605
vt -0.02000006 0.605
vt -0.02000006 0.605
vt -0.02000006 0.63
vt 0.03499994 0.63
vt 0.03499994 0.605
vt 0.09000007 -0.48
vt -0.09000007 0.605
vt -0.09000007 0.565
vt 0.08999996 0.565
vt -0.08999996 0.48
vt 0.09000007 0.48
vt 0.07499995 0.435
vt 0.07499995 0.565
vt 0.08999996 0.435
vt -0.09000007 0.435
vt -0.07500007 0.565
vt -0.07500007 0.435
vt -0.03500006 0.565
vt -0.03500006 0.435
vt 0.4850001 0.565
vt 0.4850001 0.435
vt -0.02000006 0.565
vt 0.01999994 0.565
vt 0.03499995 0.565
vt 0.03499995 0.435
vt -0.4850001 0.435
vt -0.4850001 0.565
vt 0.03499994 0.565
vt 0.01999994 0.435
vt 0.03499994 0.435
vt -0.02000006 0.435
vt -0.02000006 0.435
vt -0.02000006 0.565
vt 0.08999996 0.395
vt 0.07499995 0.37
vt 0.07499995 0.395
vt 0.4850001 0.395
vt 0.4850001 0.37
vt 0.03499995 0.395
vt -0.4850001 0.37
vt -0.4850001 0.395
vt -0.03500006 0.395
vt 0.03499994 0.37
vt 0.01999994 0.395
vt 0.03499994 0.395
vt -0.02000006 0.395
vt -0.02000006 0.37
vt -0.02000006 0.395

usemtl M_0035_Tan (Instance) (Instance)
usemap M_0035_Tan (Instance) (Instance)
f 3/3/1 2/2/1 1/1/1
f 4/4/1 1/1/1 2/2/1
f 4/7/2 5/6/2 1/5/2
f 6/8/2 1/5/2 5/6/2
f 6/11/3 7/10/3 1/9/3
f 3/12/3 1/9/3 7/10/3
f 3/15/4 7/14/4 2/13/4
f 8/16/4 2/13/4 7/14/4
f 8/19/5 5/18/5 2/17/5
f 4/20/5 2/17/5 5/18/5
f 5/23/6 8/22/6 9/21/6
f 7/24/6 9/21/6 8/22/6
f 9/21/6 7/24/6 10/25/6
f 6/26/6 10/25/6 7/24/6
f 11/27/6 10/25/6 6/26/6
f 11/30/7 12/29/7 10/28/7
f 12/29/7 13/31/7 10/28/7
f 10/28/7 13/31/7 14/32/7
f 15/33/7 14/32/7 13/31/7
f 17/36/8 16/35/8 14/34/8
f 14/34/8 16/35/8 10/37/8
f 16/35/8 18/38/8 10/37/8
f 18/38/8 19/39/8 10/37/8
f 19/39/8 20/40/8 10/37/8
f 10/37/8 20/40/8 9/41/8
f 20/40/8 21/42/8 9/41/8
f 22/43/8 9/41/8 21/42/8
f 22/46/9 23/45/9 9/44/9
f 24/47/9 9/44/9 23/45/9
f 25/48/9 9/44/9 24/47/9
f 9/44/9 25/48/9 26/49/9
f 25/48/9 27/50/9 26/49/9
f 26/49/9 27/50/9 28/51/9
f 29/52/9 28/51/9 27/50/9
f 31/55/10 28/54/10 30/53/10
f 28/54/10 31/55/10 26/56/10
f 11/57/10 26/56/10 31/55/10
f 11/27/6 5/23/6 26/58/6
f 26/58/6 5/23/6 9/21/6
f 5/23/6 11/27/6 6/26/6
f 32/59/10 11/57/10 31/55/10
f 33/60/10 11/57/10 32/59/10
f 34/61/10 11/57/10 33/60/10
f 35/62/10 11/57/10 34/61/10
f 36/63/10 11/57/10 35/62/10
f 37/64/10 11/57/10 36/63/10
f 37/66/7 38/65/7 11/30/7
f 39/67/7 11/30/7 38/65/7
f 12/29/7 11/30/7 39/67/7
f 41/69/7 40/68/7 12/29/7
f 42/70/7 12/29/7 40/68/7
f 43/73/7 12/72/7 42/71/7
f 44/74/7 12/72/7 43/73/7
f 13/75/7 12/72/7 44/74/7
f 44/78/7 43/77/7 45/76/7
f 46/79/7 45/76/7 43/77/7
f 48/81/8 19/39/8 47/80/8
f 47/80/8 19/39/8 18/38/8
f 34/61/10 33/60/10 49/82/10
f 51/84/9 50/83/9 25/48/9
f 52/85/9 25/48/9 50/83/9
f 53/88/9 25/87/9 52/86/9
f 54/89/9 25/87/9 53/88/9
f 27/90/9 25/87/9 54/89/9
f 56/93/9 55/92/9 53/91/9
f 54/94/9 53/91/9 55/92/9

usemtl M_0042_Sienna (Instance) (Instance)
usemap M_0042_Sienna (Instance) (Instance)
f 15/75/6 57/95/6 14/25/6
f 17/96/6 14/25/6 57/95/6
f 29/90/6 58/97/6 28/58/6
f 30/98/6 28/58/6 58/97/6
f 12/72/6 39/100/6 59/99/6
f 60/101/6 59/99/6 39/100/6
f 60/50/3 16/102/3 59/94/3
f 59/94/3 16/102/3 61/48/3
f 61/48/3 16/102/3 62/47/3
f 62/47/3 16/102/3 57/45/3
f 17/46/3 57/45/3 16/102/3
f 62/104/4 57/63/4 13/103/4
f 15/64/4 13/103/4 57/63/4
f 62/95/6 13/75/6 61/105/6
f 44/74/6 61/105/6 13/75/6
f 44/107/11 45/34/11 61/106/11
f 63/36/11 61/106/11 45/34/11
f 63/84/3 64/83/3 61/48/3
f 65/85/3 61/48/3 64/83/3
f 66/109/3 61/105/3 65/108/3
f 61/105/3 66/109/3 59/99/3
f 59/94/3 66/91/3 67/92/3
f 68/93/3 67/92/3 66/91/3
f 67/99/6 68/110/6 41/72/6
f 40/111/6 41/72/6 68/110/6
f 46/73/6 64/108/6 45/112/6
f 63/113/6 45/112/6 64/108/6
f 46/64/12 43/103/12 64/63/12
f 65/104/12 64/63/12 43/103/12
f 65/108/6 43/73/6 66/109/6
f 42/71/6 66/109/6 43/73/6
f 42/107/13 40/34/13 66/106/13
f 68/36/13 66/106/13 40/34/13
f 41/64/14 12/103/14 67/63/14
f 59/104/14 67/63/14 12/103/14
f 16/102/3 60/50/3 35/114/3
f 35/114/3 60/50/3 36/51/3
f 69/52/3 36/51/3 60/50/3
f 69/101/6 38/100/6 36/115/6
f 37/27/6 36/115/6 38/100/6
f 69/36/2 60/106/2 38/34/2
f 39/107/2 38/34/2 60/106/2
f 35/115/15 34/116/15 16/96/15
f 18/117/15 16/96/15 34/116/15
f 34/119/5 70/29/5 18/118/5
f 70/29/5 71/31/5 18/118/5
f 18/118/5 71/31/5 47/32/5
f 72/33/5 47/32/5 71/31/5
f 72/121/6 73/120/6 47/117/6
f 48/122/6 47/117/6 73/120/6
f 48/46/3 73/45/3 19/102/3
f 74/47/3 19/102/3 73/45/3
f 75/48/3 19/102/3 74/47/3
f 76/85/3 19/102/3 75/48/3
f 77/91/3 19/102/3 76/85/3
f 78/94/3 19/102/3 77/91/3
f 79/50/3 19/102/3 78/94/3
f 19/102/3 79/50/3 32/114/3
f 32/114/3 79/50/3 33/51/3
f 80/52/3 33/51/3 79/50/3
f 80/125/6 81/124/6 33/123/6
f 49/116/6 33/123/6 81/124/6
f 49/66/5 81/65/5 34/119/5
f 82/67/5 34/119/5 81/65/5
f 70/29/5 34/119/5 82/67/5
f 82/124/6 79/125/6 70/126/6
f 78/127/6 70/126/6 79/125/6
f 78/129/4 83/60/4 70/128/4
f 84/82/4 70/128/4 83/60/4
f 84/69/5 85/68/5 70/29/5
f 86/70/5 70/29/5 85/68/5
f 87/131/5 70/126/5 86/130/5
f 88/132/5 70/126/5 87/131/5
f 71/121/5 70/126/5 88/132/5
f 88/132/6 75/133/6 71/121/6
f 74/120/6 71/121/6 75/133/6
f 74/129/4 73/60/4 71/128/4
f 72/82/4 71/128/4 73/60/4
f 88/135/2 89/80/2 75/134/2
f 90/81/2 75/134/2 89/80/2
f 90/84/3 91/83/3 75/48/3
f 76/85/3 75/48/3 91/83/3
f 76/129/16 91/60/16 87/128/16
f 92/82/16 87/128/16 91/60/16
f 92/79/5 89/76/5 87/77/5
f 88/78/5 87/77/5 89/76/5
f 92/131/6 91/137/6 89/136/6
f 90/138/6 89/136/6 91/137/6
f 87/131/6 86/130/6 76/137/6
f 77/139/6 76/137/6 86/130/6
f 86/135/17 85/80/17 77/134/17
f 93/81/17 77/134/17 85/80/17
f 93/93/3 83/92/3 77/91/3
f 78/94/3 77/91/3 83/92/3
f 83/127/6 93/140/6 84/126/6
f 85/141/6 84/126/6 93/140/6
f 82/135/2 81/80/2 79/134/2
f 80/81/2 79/134/2 81/80/2
f 32/123/18 31/98/18 19/122/18
f 20/142/18 19/122/18 31/98/18
f 31/119/19 94/31/19 20/118/19
f 20/118/19 94/31/19 21/32/19
f 95/33/19 21/32/19 94/31/19
f 95/144/6 23/143/6 21/142/6
f 22/21/6 21/142/6 23/143/6
f 95/53/4 94/145/4 23/54/4
f 24/146/4 23/54/4 94/145/4
f 24/143/6 94/144/6 25/87/6
f 96/147/6 25/87/6 94/144/6
f 96/149/13 97/42/13 25/148/13
f 51/43/13 25/148/13 97/42/13
f 54/89/6 98/150/6 27/90/6
f 99/97/6 27/90/6 98/150/6
f 99/149/20 58/42/20 27/148/20
f 29/43/20 27/148/20 58/42/20
f 99/67/19 31/119/19 58/65/19
f 30/66/19 58/65/19 31/119/19
f 98/29/19 31/119/19 99/67/19
f 100/70/19 31/119/19 98/29/19
f 101/77/19 31/119/19 100/70/19
f 96/78/19 31/119/19 101/77/19
f 94/31/19 31/119/19 96/78/19
f 96/78/19 101/77/19 97/76/19
f 102/79/19 97/76/19 101/77/19
f 97/153/6 102/152/6 51/151/6
f 50/86/6 51/151/6 102/152/6
f 102/53/14 101/145/14 50/54/14
f 52/146/14 50/54/14 101/145/14
f 101/152/6 100/154/6 52/86/6
f 53/88/6 52/86/6 100/154/6
f 100/149/21 103/42/21 53/148/21
f 56/43/21 53/148/21 103/42/21
f 54/146/22 55/54/22 98/145/22
f 104/53/22 98/145/22 55/54/22
f 104/69/19 103/68/19 98/29/19
f 100/70/19 98/29/19 103/68/19
f 103/156/6 104/150/6 56/155/6
f 55/89/6 56/155/6 104/150/6
